<svg xmlns="http://www.w3.org/2000/svg" xmlns:xlink="http://www.w3.org/1999/xlink" contentStyleType="text/css" data-diagram-type="DESCRIPTION" height="1207px" preserveAspectRatio="none" style="width:1249px;height:1207px;background:#FFFFFF;" version="1.1" viewBox="0 0 1249 1207" width="1249px" zoomAndPan="magnify"><title>&lt;b&gt;&lt;size:24&gt;Architectural Overview&lt;/size&gt;&lt;/b&gt;</title><defs/><g><text fill="#000000" font-family="Arial" font-size="24" font-weight="bold" lengthAdjust="spacing" textLength="311.5781" x="461.7109" y="50.2773">Architectural Overview</text><text fill="#000000" font-family="Arial" font-size="16" font-weight="bold" lengthAdjust="spacing" textLength="644.8047" x="295.0977" y="70.7891">Two-machine ROS 2 Humble workspace, CycloneDDS unicast over Wi-Fi</text><!--cluster Laptop--><g id="cluster_Laptop"><polygon fill="#F7F7F7" points="16,119.5625,26,109.5625,685,109.5625,685,1180.5625,675,1190.5625,16,1190.5625,16,119.5625" style="stroke:#2C3E50;stroke-width:2;"/><line style="stroke:#2C3E50;stroke-width:2;" x1="675" x2="685" y1="119.5625" y2="109.5625"/><line style="stroke:#2C3E50;stroke-width:2;" x1="16" x2="675" y1="119.5625" y2="119.5625"/><line style="stroke:#2C3E50;stroke-width:2;" x1="675" x2="675" y1="119.5625" y2="1190.5625"/><text fill="#000000" font-family="Arial" font-size="14" font-weight="bold" lengthAdjust="spacing" textLength="54.7217" x="319.1392" y="153.5576">Laptop</text></g><!--cluster RPi--><g id="cluster_RPi"><polygon fill="#F7F7F7" points="725,439.5625,735,429.5625,1232,429.5625,1232,798.5625,1222,808.5625,725,808.5625,725,439.5625" style="stroke:#2C3E50;stroke-width:2;"/><line style="stroke:#2C3E50;stroke-width:2;" x1="1222" x2="1232" y1="439.5625" y2="429.5625"/><line style="stroke:#2C3E50;stroke-width:2;" x1="725" x2="1222" y1="439.5625" y2="439.5625"/><line style="stroke:#2C3E50;stroke-width:2;" x1="1222" x2="1222" y1="439.5625" y2="808.5625"/><text fill="#000000" font-family="Arial" font-size="14" font-weight="bold" lengthAdjust="spacing" textLength="126.2529" x="911.3735" y="473.5576">Raspberry Pi 4B</text></g><!--entity Cart--><g id="elem_Cart"><rect fill="#AED6F1" height="88.5938" rx="10" ry="10" style="stroke:#2E86C1;stroke-width:2;" width="210.3418" x="267" y="193.5625"/><text fill="#000000" font-family="Arial" font-size="14" font-weight="bold" lengthAdjust="spacing" textLength="154.3418" x="295" y="234.5576">Cartographer SLAM</text><text fill="#000000" font-family="Arial" font-size="14" font-weight="bold" lengthAdjust="spacing" textLength="67.2588" x="295" y="250.8545">/map, /tf</text></g><!--entity Nav2--><g id="elem_Nav2"><rect fill="#AED6F1" height="88.5938" rx="10" ry="10" style="stroke:#2E86C1;stroke-width:2;" width="215.1748" x="264.5" y="521.5625"/><text fill="#000000" font-family="Arial" font-size="14" font-weight="bold" lengthAdjust="spacing" textLength="86.9873" x="292.5" y="562.5576">Nav2 stack</text><text fill="#000000" font-family="Arial" font-size="14" font-weight="bold" lengthAdjust="spacing" textLength="159.1748" x="292.5" y="578.8545">planner + controller</text></g><!--entity Explore--><g id="elem_Explore"><rect fill="#AED6F1" height="88.5938" rx="10" ry="10" style="stroke:#2E86C1;stroke-width:2;" width="188.501" x="277.5" y="687.5625"/><text fill="#000000" font-family="Arial" font-size="14" font-weight="bold" lengthAdjust="spacing" textLength="127.9551" x="305.5" y="728.5576">auto_explore_v2</text><text fill="#000000" font-family="Arial" font-size="14" font-weight="bold" lengthAdjust="spacing" textLength="132.501" x="305.5" y="744.8545">frontiers &#8594; goals</text></g><!--entity Coord--><g id="elem_Coord"><rect fill="#E8DAEF" height="88.5938" rx="10" ry="10" style="stroke:#2E86C1;stroke-width:2;" width="215.3252" x="264.5" y="863.5625"/><text fill="#000000" font-family="Arial" font-size="14" font-weight="bold" lengthAdjust="spacing" textLength="159.3252" x="292.5" y="904.5576">mission_coordinator</text><text fill="#000000" font-family="Arial" font-size="14" font-weight="bold" lengthAdjust="spacing" textLength="94.0557" x="292.5" y="920.8545">central FSM</text></g><!--entity Dock--><g id="elem_Dock"><rect fill="#E8DAEF" height="88.5938" rx="10" ry="10" style="stroke:#2E86C1;stroke-width:2;" width="175.2939" x="40.5" y="1077.5625"/><text fill="#000000" font-family="Arial" font-size="14" font-weight="bold" lengthAdjust="spacing" textLength="119.2939" x="68.5" y="1118.5576">docking_server</text><text fill="#000000" font-family="Arial" font-size="14" font-weight="bold" lengthAdjust="spacing" textLength="78.1143" x="68.5" y="1134.8545">docker.py</text></g><!--entity Search--><g id="elem_Search"><rect fill="#FDEBD0" height="88.5938" rx="10" ry="10" style="stroke:#2E86C1;stroke-width:2;" width="244.0771" x="262" y="1077.5625"/><text fill="#000000" font-family="Arial" font-size="14" font-weight="bold" lengthAdjust="spacing" textLength="123.3271" x="290" y="1118.5576">search_stations</text><text fill="#000000" font-family="Arial" font-size="14" font-weight="bold" lengthAdjust="spacing" textLength="188.0771" x="290" y="1134.8545">zone sweep + 360&#176; spin</text></g><!--entity RViz--><g id="elem_RViz"><rect fill="#F7F7F7" height="88.5938" rx="10" ry="10" style="stroke:#2E86C1;stroke-width:2;" width="156.126" x="64" y="193.5625"/><text fill="#000000" font-family="Arial" font-size="14" font-weight="bold" lengthAdjust="spacing" textLength="44.3037" x="92" y="234.5576">RViz2</text><text fill="#000000" font-family="Arial" font-size="14" font-weight="bold" lengthAdjust="spacing" textLength="100.126" x="92" y="250.8545">visualisation</text></g><!--entity Bringup--><g id="elem_Bringup"><rect fill="#AED6F1" height="88.5938" rx="10" ry="10" style="stroke:#2E86C1;stroke-width:2;" width="205.3242" x="768.5" y="521.5625"/><text fill="#000000" font-family="Arial" font-size="14" font-weight="bold" lengthAdjust="spacing" textLength="149.3242" x="796.5" y="562.5576">turtlebot3_bringup</text><text fill="#000000" font-family="Arial" font-size="14" font-weight="bold" lengthAdjust="spacing" textLength="139.8359" x="796.5" y="578.8545">OpenCR + LDS-02</text></g><!--entity Apriltag--><g id="elem_Apriltag"><rect fill="#AED6F1" height="104.8906" rx="10" ry="10" style="stroke:#2E86C1;stroke-width:2;" width="199.3086" x="1008.5" y="513.5625"/><text fill="#000000" font-family="Arial" font-size="14" font-weight="bold" lengthAdjust="spacing" textLength="131.168" x="1036.5" y="554.5576">apriltag_docking</text><text fill="#000000" font-family="Arial" font-size="14" font-weight="bold" lengthAdjust="spacing" textLength="143.3086" x="1036.5" y="570.8545">vision container +</text><text fill="#000000" font-family="Arial" font-size="14" font-weight="bold" lengthAdjust="spacing" textLength="123.7441" x="1036.5" y="587.1514">dock-pose pubs</text></g><!--entity Delivery--><g id="elem_Delivery"><rect fill="#FADBD8" height="104.8906" rx="10" ry="10" style="stroke:#2E86C1;stroke-width:2;" width="227.541" x="769" y="679.5625"/><text fill="#000000" font-family="Arial" font-size="14" font-weight="bold" lengthAdjust="spacing" textLength="121.0234" x="797" y="720.5576">delivery_server</text><text fill="#000000" font-family="Arial" font-size="14" font-weight="bold" lengthAdjust="spacing" textLength="146.2207" x="797" y="736.8545">shot orchestration</text><text fill="#000000" font-family="Arial" font-size="14" font-weight="bold" lengthAdjust="spacing" textLength="171.541" x="797" y="753.1514">MG90 servo &#183; GPIO 12</text></g><!--link Cart to Nav2--><g id="link_Cart_Nav2"><path d="M372,282.6925 C372,345.0625 372,453.0625 372,515.4325 " fill="transparent" id="Cart-to-Nav2" style="stroke:#2C3E50;stroke-width:3;"/><polygon fill="#2C3E50" points="372,521.4325,376,512.4325,372,516.4325,368,512.4325,372,521.4325" style="stroke:#2C3E50;stroke-width:3;"/></g><!--link Nav2 to Explore--><g id="link_Nav2_Explore"><path d="M372,610.5825 C372,634.3025 372,657.5825 372,681.3425 " fill="transparent" id="Nav2-to-Explore" style="stroke:#2C3E50;stroke-width:3;"/><polygon fill="#2C3E50" points="372,687.3425,376,678.3425,372,682.3425,368,678.3425,372,687.3425" style="stroke:#2C3E50;stroke-width:3;"/></g><!--link Explore to Coord--><g id="link_Explore_Coord"><path d="M372,776.9725 C372,803.4525 372,831.0525 372,857.4725 " fill="transparent" id="Explore-to-Coord" style="stroke:#2C3E50;stroke-width:3;"/><polygon fill="#2C3E50" points="372,863.4725,376,854.4725,372,858.4725,368,854.4725,372,863.4725" style="stroke:#2C3E50;stroke-width:3;"/></g><!--link Coord to Dock--><g id="link_Coord_Dock"><path d="M264.25,924.5625 C197.4,936.6425 120.44,955.8625 100,982.5625 C79.35,1009.5425 86.7555,1042.4011 100.1755,1071.9011 " fill="transparent" id="Coord-to-Dock" style="stroke:#2C3E50;stroke-width:3;stroke-dasharray:7.0,7.0;"/><polygon fill="#2C3E50" points="102.66,1077.3625,102.5742,1067.514,100.5896,1072.8113,95.2923,1070.8267,102.66,1077.3625" style="stroke:#2C3E50;stroke-width:3;"/><text fill="#34495E" font-family="Arial" font-size="24" lengthAdjust="spacing" textLength="231.4922" x="119" y="1023.8398">/mission_command</text></g><!--link Coord to Search--><g id="link_Coord_Search"><path d="M374.47,952.7325 C376.54,989.2125 379.1316,1034.992 381.1916,1071.462 " fill="transparent" id="Coord-to-Search" style="stroke:#2C3E50;stroke-width:3;stroke-dasharray:7.0,7.0;"/><polygon fill="#2C3E50" points="381.53,1077.4525,385.0161,1068.2412,381.248,1072.4605,377.0288,1068.6924,381.53,1077.4525" style="stroke:#2C3E50;stroke-width:3;"/><text fill="#34495E" font-family="Arial" font-size="24" lengthAdjust="spacing" textLength="231.4922" x="399" y="1023.8398">/mission_command</text></g><!--link Laptop to RPi--><g id="link_Laptop_RPi"><path d="M686.0526,291.7733 C691.2742,322.1715 698.1088,361.9581 705,402.0738 C711.8913,442.1894 718.7825,482.3041 724.0041,512.6986 C724.3304,514.5983 723.6344,510.5466 723.9473,512.3679 " fill="transparent" id="Laptop-RPi" style="stroke:#2C3E50;stroke-width:3;"/><polygon fill="#2C3E50" points="685.0369,285.8599,682.6182,295.4071,685.8833,290.7877,690.5028,294.0528,685.0369,285.8599" style="stroke:#2C3E50;stroke-width:3;"/><polygon fill="#2C3E50" points="724.9631,518.2813,727.3816,508.734,724.1166,513.3535,719.4971,510.0885,724.9631,518.2813" style="stroke:#2C3E50;stroke-width:3;"/><text fill="#34495E" font-family="Arial" font-size="24" font-weight="bold" lengthAdjust="spacing" textLength="269.625" x="724" y="353.8398">CycloneDDS unicast</text><text fill="#34495E" font-family="Arial" font-size="24" lengthAdjust="spacing" textLength="120.6797" x="798.4727" y="381.7773">over Wi-Fi</text></g><!--SRC=[RPHDRjim48NtEiKqMJR-YHEaQM08i2CxBP3KWLMq6m429KyS8XH9a9HTf-Ys1-X9kki-H-b9EgJa64u3RoZF-qR3DpDwmsKfwWL2Rjr6O9VNbOWYnvr061RnqF97l1YSnYDJtdE7fQiD4p1ReLbnN0zxFXuFUqMSoKPxV1P_NgjEnKWl4UQp50RmeQuAIhXMvi5gLk8HN6vAeIGcIGgrv2Mp3XGbXQ-yC-LjsYYo3rngPbW5fQeqwQLBVPbWg18cbmAZI2gg_k2QQQVq0J0BpH6-Hx2ZuE2I6QUMXkbxUajwFRh9PAzY-WXwxYvWNh2FV6Ah0LZ7oeTCQi6a9F8j2QGpIWWq0VEYVOpLJkNuJGjbC5yDCdbd2E5eBFpz-GkMYWaRq4cZsQShRYrNCY-LCWikcLCcaoM5lE_JzAQfrGVXS7AUZ2RJVNwXIZ9jcLlg41Bgdz5qzIQ02Jszpbbar6AQ0kRezJQJZnG0kqRKTEcJi_xJRx2Qov0c3M8ud2QJSTBVJpJ_mX_fqYjkQoQu3Ua2v0E4lFE_Y1XlE7GMQYqxyTR6OFdslvq_xUav4kxlKmGVkjsukTW5z7RsLHMJ-vgswbTKFxPZD6TM5sZC1cuvd8wRkkduOfXe2sX12kLEyiAGsxNEv4oZl9oJLzT9skaF0ZfkWY_cGnik75lcRQk2LrHDc2p6mvGrVUjePH5qNJJpCch15mr7mQdJc-UEstj5oqGtHKj3u-tFvCtL-pvuWOAdFt1r-t46nqs9IOjJPqR9E3dtNhGRDDpQxHsuy9-3_xUsMVtTwaR_0000]--></g></svg>