<svg xmlns="http://www.w3.org/2000/svg" xmlns:xlink="http://www.w3.org/1999/xlink" contentStyleType="text/css" data-diagram-type="DESCRIPTION" height="1043px" preserveAspectRatio="none" style="width:1111px;height:1043px;background:#FFFFFF;" version="1.1" viewBox="0 0 1111 1043" width="1111px" zoomAndPan="magnify"><title>&lt;b&gt;&lt;size:24&gt;Architectural Overview&lt;/size&gt;&lt;/b&gt;</title><defs/><g><text fill="#000000" font-family="Arial" font-size="24" font-weight="bold" lengthAdjust="spacing" textLength="311.5781" x="386.7109" y="50.2773">Architectural Overview</text><text fill="#000000" font-family="Arial" font-size="16" font-weight="bold" lengthAdjust="spacing" textLength="644.8047" x="220.0977" y="70.7891">Two-machine ROS 2 Humble workspace, CycloneDDS unicast over Wi-Fi</text><!--cluster Laptop--><g id="cluster_Laptop"><polygon fill="#F7F7F7" points="14,117.5625,24,107.5625,613,107.5625,613,1016.5625,603,1026.5625,14,1026.5625,14,117.5625" style="stroke:#2C3E50;stroke-width:2;"/><line style="stroke:#2C3E50;stroke-width:2;" x1="603" x2="613" y1="117.5625" y2="107.5625"/><line style="stroke:#2C3E50;stroke-width:2;" x1="14" x2="603" y1="117.5625" y2="117.5625"/><line style="stroke:#2C3E50;stroke-width:2;" x1="603" x2="603" y1="117.5625" y2="1026.5625"/><text fill="#000000" font-family="Arial" font-size="14" font-weight="bold" lengthAdjust="spacing" textLength="54.7217" x="282.1392" y="151.5576">Laptop</text></g><!--cluster RPi--><g id="cluster_RPi"><polygon fill="#F7F7F7" points="621,395.5625,631,385.5625,1094,385.5625,1094,698.5625,1084,708.5625,621,708.5625,621,395.5625" style="stroke:#2C3E50;stroke-width:2;"/><line style="stroke:#2C3E50;stroke-width:2;" x1="1084" x2="1094" y1="395.5625" y2="385.5625"/><line style="stroke:#2C3E50;stroke-width:2;" x1="621" x2="1084" y1="395.5625" y2="395.5625"/><line style="stroke:#2C3E50;stroke-width:2;" x1="1084" x2="1084" y1="395.5625" y2="708.5625"/><text fill="#000000" font-family="Arial" font-size="14" font-weight="bold" lengthAdjust="spacing" textLength="126.2529" x="790.3735" y="429.5576">Raspberry Pi 4B</text></g><!--entity Cart--><g id="elem_Cart"><rect fill="#AED6F1" height="88.5938" rx="10" ry="10" style="stroke:#2E86C1;stroke-width:2;" width="210.3418" x="65" y="175.5625"/><text fill="#000000" font-family="Arial" font-size="14" font-weight="bold" lengthAdjust="spacing" textLength="154.3418" x="93" y="216.5576">Cartographer SLAM</text><text fill="#000000" font-family="Arial" font-size="14" font-weight="bold" lengthAdjust="spacing" textLength="67.2588" x="93" y="232.8545">/map, /tf</text></g><!--entity Nav2--><g id="elem_Nav2"><rect fill="#AED6F1" height="88.5938" rx="10" ry="10" style="stroke:#2E86C1;stroke-width:2;" width="215.1748" x="62.5" y="461.5625"/><text fill="#000000" font-family="Arial" font-size="14" font-weight="bold" lengthAdjust="spacing" textLength="86.9873" x="90.5" y="502.5576">Nav2 stack</text><text fill="#000000" font-family="Arial" font-size="14" font-weight="bold" lengthAdjust="spacing" textLength="159.1748" x="90.5" y="518.8545">planner + controller</text></g><!--entity Explore--><g id="elem_Explore"><rect fill="#AED6F1" height="88.5938" rx="10" ry="10" style="stroke:#2E86C1;stroke-width:2;" width="188.501" x="75.5" y="603.5625"/><text fill="#000000" font-family="Arial" font-size="14" font-weight="bold" lengthAdjust="spacing" textLength="127.9551" x="103.5" y="644.5576">auto_explore_v2</text><text fill="#000000" font-family="Arial" font-size="14" font-weight="bold" lengthAdjust="spacing" textLength="132.501" x="103.5" y="660.8545">frontiers &#8594; goals</text></g><!--entity Coord--><g id="elem_Coord"><rect fill="#E8DAEF" height="88.5938" rx="10" ry="10" style="stroke:#2E86C1;stroke-width:2;" width="215.3252" x="62.5" y="737.5625"/><text fill="#000000" font-family="Arial" font-size="14" font-weight="bold" lengthAdjust="spacing" textLength="159.3252" x="90.5" y="778.5576">mission_coordinator</text><text fill="#000000" font-family="Arial" font-size="14" font-weight="bold" lengthAdjust="spacing" textLength="94.0557" x="90.5" y="794.8545">central FSM</text></g><!--entity Dock--><g id="elem_Dock"><rect fill="#E8DAEF" height="88.5938" rx="10" ry="10" style="stroke:#2E86C1;stroke-width:2;" width="175.2939" x="22.5" y="929.5625"/><text fill="#000000" font-family="Arial" font-size="14" font-weight="bold" lengthAdjust="spacing" textLength="119.2939" x="50.5" y="970.5576">docking_server</text><text fill="#000000" font-family="Arial" font-size="14" font-weight="bold" lengthAdjust="spacing" textLength="78.1143" x="50.5" y="986.8545">docker.py</text></g><!--entity Search--><g id="elem_Search"><rect fill="#FDEBD0" height="88.5938" rx="10" ry="10" style="stroke:#2E86C1;stroke-width:2;" width="244.0771" x="216" y="929.5625"/><text fill="#000000" font-family="Arial" font-size="14" font-weight="bold" lengthAdjust="spacing" textLength="123.3271" x="244" y="970.5576">search_stations</text><text fill="#000000" font-family="Arial" font-size="14" font-weight="bold" lengthAdjust="spacing" textLength="188.0771" x="244" y="986.8545">zone sweep + 360&#176; spin</text></g><!--entity RViz--><g id="elem_RViz"><rect fill="#F7F7F7" height="88.5938" rx="10" ry="10" style="stroke:#2E86C1;stroke-width:2;" width="156.126" x="334" y="175.5625"/><text fill="#000000" font-family="Arial" font-size="14" font-weight="bold" lengthAdjust="spacing" textLength="44.3037" x="362" y="216.5576">RViz2</text><text fill="#000000" font-family="Arial" font-size="14" font-weight="bold" lengthAdjust="spacing" textLength="100.126" x="362" y="232.8545">visualisation</text></g><!--entity Bringup--><g id="elem_Bringup"><rect fill="#AED6F1" height="88.5938" rx="10" ry="10" style="stroke:#2E86C1;stroke-width:2;" width="205.3242" x="663.5" y="461.5625"/><text fill="#000000" font-family="Arial" font-size="14" font-weight="bold" lengthAdjust="spacing" textLength="149.3242" x="691.5" y="502.5576">turtlebot3_bringup</text><text fill="#000000" font-family="Arial" font-size="14" font-weight="bold" lengthAdjust="spacing" textLength="139.8359" x="691.5" y="518.8545">OpenCR + LDS-02</text></g><!--entity Apriltag--><g id="elem_Apriltag"><rect fill="#AED6F1" height="104.8906" rx="10" ry="10" style="stroke:#2E86C1;stroke-width:2;" width="199.3086" x="886.5" y="453.5625"/><text fill="#000000" font-family="Arial" font-size="14" font-weight="bold" lengthAdjust="spacing" textLength="131.168" x="914.5" y="494.5576">apriltag_docking</text><text fill="#000000" font-family="Arial" font-size="14" font-weight="bold" lengthAdjust="spacing" textLength="143.3086" x="914.5" y="510.8545">vision container +</text><text fill="#000000" font-family="Arial" font-size="14" font-weight="bold" lengthAdjust="spacing" textLength="123.7441" x="914.5" y="527.1514">dock-pose pubs</text></g><!--entity Delivery--><g id="elem_Delivery"><rect fill="#FADBD8" height="104.8906" rx="10" ry="10" style="stroke:#2E86C1;stroke-width:2;" width="227.541" x="652" y="595.5625"/><text fill="#000000" font-family="Arial" font-size="14" font-weight="bold" lengthAdjust="spacing" textLength="121.0234" x="680" y="636.5576">delivery_server</text><text fill="#000000" font-family="Arial" font-size="14" font-weight="bold" lengthAdjust="spacing" textLength="146.2207" x="680" y="652.8545">shot orchestration</text><text fill="#000000" font-family="Arial" font-size="14" font-weight="bold" lengthAdjust="spacing" textLength="171.541" x="680" y="669.1514">MG90 servo &#183; GPIO 12</text></g><polygon fill="#2C3E50" points="170,461.2602,174,452.2602,170,456.2602,166,452.2602,170,461.2602" style="stroke:#2C3E50;stroke-width:1;"/><path d="M170,264.8151 C170,318.1839 170,401.8688 170,455.2602 " fill="transparent" style="stroke:#2C3E50;stroke-width:3;"/><polygon fill="#2C3E50" points="170,603.56,174,594.56,170,598.56,166,594.56,170,603.56" style="stroke:#2C3E50;stroke-width:1;"/><path d="M170,550.592 C170,567.4483 170,580.7062 170,597.56 " fill="transparent" style="stroke:#2C3E50;stroke-width:3;"/><polygon fill="#2C3E50" points="170,737.5207,174,728.5207,170,732.5207,166,728.5207,170,737.5207" style="stroke:#2C3E50;stroke-width:1;"/><path d="M170,692.6501 C170,707.0683 170,717.1059 170,731.5207 " fill="transparent" style="stroke:#2C3E50;stroke-width:3;"/><polygon fill="#2C3E50" points="52.0479,929.2617,49.5329,919.7394,48.9178,925.3627,43.2945,924.7476,52.0479,929.2617" style="stroke:#2C3E50;stroke-width:1;"/><path d="M62.2281,821.4335 C53.942,827.9937 46.6276,835.6452 41,844.5625 C25.1078,869.7449 28.8197,884.3898 41,911.5625 C43.8224,917.859 43.8873,919.0966 48.2918,924.5829 " fill="transparent" style="stroke:#2C3E50;stroke-width:3;stroke-dasharray:7.0,7.0;"/><text fill="#34495E" font-family="Arial" font-size="24" lengthAdjust="spacing" textLength="231.4922" x="61" y="886.8398">/mission_command</text><polygon fill="#2C3E50" points="338.9941,929.474,342.4665,920.2576,338.7047,924.4823,334.4799,920.7205,338.9941,929.474" style="stroke:#2C3E50;stroke-width:1;"/><path d="M277.6,815.8237 C290.6243,823.5238 302.6144,832.9767 312,844.5625 C331.1986,868.2618 337.0751,896.3683 338.6468,923.484 " fill="transparent" style="stroke:#2C3E50;stroke-width:3;stroke-dasharray:7.0,7.0;"/><text fill="#34495E" font-family="Arial" font-size="24" lengthAdjust="spacing" textLength="231.4922" x="357" y="886.8398">/mission_command</text><polygon fill="#2C3E50" points="613.1054,335.4105,610.3997,344.8804,613.8027,340.3616,618.3215,343.7647,613.1054,335.4105" style="stroke:#2C3E50;stroke-width:1;"/><polygon fill="#2C3E50" points="620.9201,390.895,623.6258,381.4251,620.2227,385.9438,615.7039,382.5408,620.9201,390.895" style="stroke:#2C3E50;stroke-width:1;"/><path d="M613.9422,341.3519 C614.177,343.0191 613.9274,341.2468 614.1634,342.9226 C615.1075,349.6259 616.0602,356.3902 617.0129,363.1543 C617.9656,369.9184 618.9183,376.6822 619.8622,383.3843 C620.0982,385.0599 620.3337,386.7315 620.5684,388.3984 C620.6858,389.2318 619.9662,384.1227 620.0833,384.9536 " fill="transparent" style="stroke:#2C3E50;stroke-width:3;"/><text fill="#34495E" font-family="Arial" font-size="24" font-weight="bold" lengthAdjust="spacing" textLength="269.625" x="639" y="324.8398">CycloneDDS unicast</text><text fill="#34495E" font-family="Arial" font-size="24" lengthAdjust="spacing" textLength="120.6797" x="713.4727" y="352.7773">over Wi-Fi</text><!--SRC=[RPHDRjim48NtEiKqMJR-YHEaQM08i2CxBP3KWLMq6m72I6OS8XH9a9HTf-Ys1-X9kki-H-b9EgJa64u3RoZF-qR3DpDwemqkAmI16rKxi1LpA35wmsKfwWM3tBgDO5rULoAA77U2mR28XvO_iel1QJmovJrth7IrGG6p5JChpjR3de_7mruHPxBH7f_5dzUgKo7f9OFvB8K1VAYhWXAkbNcm6ajs19URKYZ9aYI5Ml8IhGD5IU4hxqnvcpQAx0EN6WrMKAfAarwwr9S9XYf1kHGiYgIYwW-kKJkb3m0jD4Vu7i6EWeDBD4uj3UfxUajwFRh9PAz2VGGzTnSmBzX7Fk5g0DPX-P19BL1A8j-IG3gZX60cO5wqZs7jLCw-QQ4CorU3JDuPGZWp5lx-_0LBXS86TD9ezkcAMykLp4kbp89BTCfaigIGztsQtZIr-Y0SJiwJqMIwpozKIQOjSqiTOeJwPsQwUXF0X9vUvon3QZ5D0JfwlSta8mN0hXdJTEcJi_xJRx2Qov0c3M8ud2QJSTBVJpJ_mX_fqYjkQnJSXdG1yW52tlbVH8mt73eBjPQTU6jZi7pxtywVzlGS2VVtAO8FtMxSNEm2UZlxgWhblgQj-XNLZ-qOpT7gWXcpWLiEf-EcRZg-62RQ0bgGGhcJl33aTgqpETDCNix9g-iaxVG70HqtmHVpeGqN3fTvswhW5LKJ9WjvcBAcRnsjB0DT5ysyZ5hmHSEPuDJfpNF7xRsYPQARCaj3u-tFvCtL-pvuWOAdFt1r-t46nqs9IOjJPqR9E3dtNhGRDDpQxHsuy9-3_xUsMVtTwaR_0000]--></g></svg>