<?plantuml 1.2026.1?><svg xmlns="http://www.w3.org/2000/svg" xmlns:xlink="http://www.w3.org/1999/xlink" contentStyleType="text/css" data-diagram-type="DESCRIPTION" height="1410px" preserveAspectRatio="none" style="width:764px;height:1410px;background:#FFFFFF;" version="1.1" viewBox="0 0 764 1410" width="764px" zoomAndPan="magnify"><title>&lt;b&gt;Primary Data Flow&lt;/b&gt;
&lt;size:12&gt;&lt;color:#5D6D7E&gt;Exploration &#183; Detection &#183; Delivery&lt;/color&gt;&lt;/size&gt;</title><defs/><g><g class="title" data-source-line="3"><text fill="#1B4F72" font-family="'Helvetica Neue'" font-size="22" font-weight="bold" lengthAdjust="spacing" textLength="229.2705" x="260.7397" y="38.4209">Primary Data Flow</text><text fill="#5D6D7E" font-family="'Helvetica Neue'" font-size="12" font-weight="bold" lengthAdjust="spacing" textLength="225.1172" x="262.8164" y="54.748">Exploration &#183; Detection &#183; Delivery</text></g><!--cluster NavLane--><g class="cluster" data-qualified-name="NavLane" data-source-line="13" id="ent0004"><path d="M13,534.5781 L209.208,534.5781 A10.5,10.5 0 0 1 216.208,541.5781 L223.208,571.7109 L219,571.7109 A7,7 0 0 1 226,578.7109 L226,1036.5781 A7,7 0 0 1 219,1043.5781 L13,1043.5781 A7,7 0 0 1 6,1036.5781 L6,541.5781 A7,7 0 0 1 13,534.5781" fill="none" style="stroke:#000000;stroke-width:1.5;"/><line style="stroke:#000000;stroke-width:1.5;" x1="6" x2="223.208" y1="571.7109" y2="571.7109"/><text fill="#000000" font-family="'Helvetica Neue'" font-size="13" font-weight="bold" lengthAdjust="spacing" textLength="188.208" x="18" y="556.645">Navigation lane &#8212; Laptop</text></g><!--cluster PercLane--><g class="cluster" data-qualified-name="PercLane" data-source-line="21" id="ent0009"><path d="M301,194.5781 L505.1426,194.5781 A10.5,10.5 0 0 1 512.1426,201.5781 L519.1426,246.8438 L515,246.8438 A7,7 0 0 1 522,253.8438 L522,902.0781 A7,7 0 0 1 515,909.0781 L301,909.0781 A7,7 0 0 1 294,902.0781 L294,201.5781 A7,7 0 0 1 301,194.5781" fill="none" style="stroke:#000000;stroke-width:1.5;"/><line style="stroke:#000000;stroke-width:1.5;" x1="294" x2="519.1426" y1="246.8438" y2="246.8438"/><text fill="#000000" font-family="'Helvetica Neue'" font-size="13" font-weight="bold" lengthAdjust="spacing" textLength="161.313" x="323.4148" y="216.645">Perception lane &#8212; RPi</text><text fill="#000000" font-family="'Helvetica Neue'" font-size="13" font-weight="bold" lengthAdjust="spacing" textLength="196.1426" x="306" y="231.7778">apriltag_docking container</text></g><!--entity Cart--><g class="entity" data-qualified-name="NavLane.Cart" data-source-line="14" id="ent0005"><rect fill="#EAF4FB" height="51.1328" rx="7" ry="7" style="stroke:#2E86C1;stroke-width:1.6;" width="179.3174" x="26.5" y="584.5781"/><text fill="#1B4F72" font-family="'Helvetica Neue'" font-size="13" font-weight="bold" lengthAdjust="spacing" textLength="143.3174" x="44.5" y="614.645">Cartographer SLAM</text></g><!--entity Find--><g class="entity" data-qualified-name="NavLane.Find" data-source-line="15" id="ent0006"><rect fill="#EAF4FB" height="51.1328" rx="7" ry="7" style="stroke:#2E86C1;stroke-width:1.6;" width="135.0615" x="48.5" y="709.5781"/><text fill="#1B4F72" font-family="'Helvetica Neue'" font-size="13" font-weight="bold" lengthAdjust="spacing" textLength="99.0615" x="66.5" y="739.645">find_frontiers</text></g><!--entity Score--><g class="entity" data-qualified-name="NavLane.Score" data-source-line="16" id="ent0007"><rect fill="#EAF4FB" height="51.1328" rx="7" ry="7" style="stroke:#2E86C1;stroke-width:1.6;" width="148.125" x="42" y="834.5781"/><text fill="#1B4F72" font-family="'Helvetica Neue'" font-size="13" font-weight="bold" lengthAdjust="spacing" textLength="112.125" x="60" y="864.645">score_and_post</text></g><!--entity Nav2--><g class="entity" data-qualified-name="NavLane.Nav2" data-source-line="17" id="ent0008"><rect fill="#EAF4FB" height="51.1328" rx="7" ry="7" style="stroke:#2E86C1;stroke-width:1.6;" width="116.7739" x="57.5" y="976.5781"/><text fill="#1B4F72" font-family="'Helvetica Neue'" font-size="13" font-weight="bold" lengthAdjust="spacing" textLength="80.7739" x="75.5" y="1006.645">Nav2 stack</text></g><!--entity CamNode--><g class="entity" data-qualified-name="PercLane.CamNode" data-source-line="22" id="ent0010"><rect fill="#EAF4FB" height="66.2656" rx="7" ry="7" style="stroke:#2E86C1;stroke-width:1.6;" width="129.793" x="311" y="259.5781"/><text fill="#1B4F72" font-family="'Helvetica Neue'" font-size="13" font-weight="bold" lengthAdjust="spacing" textLength="83.605" x="329" y="289.645">camera_ros</text><text fill="#1B4F72" font-family="'Helvetica Neue'" font-size="13" font-weight="bold" lengthAdjust="spacing" textLength="93.793" x="329" y="304.7778">CameraNode</text></g><!--entity Resize--><g class="entity" data-qualified-name="PercLane.Resize" data-source-line="23" id="ent0011"><rect fill="#EAF4FB" height="66.2656" rx="7" ry="7" style="stroke:#2E86C1;stroke-width:1.6;" width="121.3379" x="311.5" y="396.5781"/><text fill="#1B4F72" font-family="'Helvetica Neue'" font-size="13" font-weight="bold" lengthAdjust="spacing" textLength="83.751" x="329.5" y="426.645">image_proc</text><text fill="#1B4F72" font-family="'Helvetica Neue'" font-size="13" font-weight="bold" lengthAdjust="spacing" textLength="85.3379" x="329.5" y="441.7778">ResizeNode</text></g><!--entity Rectify--><g class="entity" data-qualified-name="PercLane.Rectify" data-source-line="24" id="ent0012"><rect fill="#EAF4FB" height="66.2656" rx="7" ry="7" style="stroke:#2E86C1;stroke-width:1.6;" width="125.2671" x="311.5" y="577.0781"/><text fill="#1B4F72" font-family="'Helvetica Neue'" font-size="13" font-weight="bold" lengthAdjust="spacing" textLength="83.751" x="329.5" y="607.145">image_proc</text><text fill="#1B4F72" font-family="'Helvetica Neue'" font-size="13" font-weight="bold" lengthAdjust="spacing" textLength="89.2671" x="329.5" y="622.2778">RectifyNode</text></g><!--entity Tag--><g class="entity" data-qualified-name="PercLane.Tag" data-source-line="25" id="ent0013"><rect fill="#EAF4FB" height="66.2656" rx="7" ry="7" style="stroke:#2E86C1;stroke-width:1.6;" width="135.5693" x="311" y="702.0781"/><text fill="#1B4F72" font-family="'Helvetica Neue'" font-size="13" font-weight="bold" lengthAdjust="spacing" textLength="87.2739" x="329" y="732.145">apriltag_ros</text><text fill="#1B4F72" font-family="'Helvetica Neue'" font-size="13" font-weight="bold" lengthAdjust="spacing" textLength="99.5693" x="329" y="747.2778">AprilTagNode</text></g><!--entity DockPosePub--><g class="entity" data-qualified-name="PercLane.DockPosePub" data-source-line="26" id="ent0014"><rect fill="#EAF4FB" height="66.2656" rx="7" ry="7" style="stroke:#2E86C1;stroke-width:1.6;" width="183.5767" x="311" y="827.0781"/><text fill="#1B4F72" font-family="'Helvetica Neue'" font-size="13" font-weight="bold" lengthAdjust="spacing" textLength="147.5767" x="329" y="857.145">detected_dock_pose</text><text fill="#1B4F72" font-family="'Helvetica Neue'" font-size="13" font-weight="bold" lengthAdjust="spacing" textLength="117.0381" x="329" y="872.2778">publisher_{0,2}</text></g><!--entity Lidar--><g class="entity" data-qualified-name="Lidar" data-source-line="9" id="ent0002"><rect fill="#D5F5E3" height="51.1328" rx="7" ry="7" style="stroke:#27AE60;stroke-width:1.6;" width="136.0518" x="48" y="404.0781"/><text fill="#196F3D" font-family="'Helvetica Neue'" font-size="13" font-weight="bold" lengthAdjust="spacing" textLength="100.0518" x="66" y="434.145">LDS-02 LiDAR</text></g><!--entity Cam--><g class="entity" data-qualified-name="Cam" data-source-line="10" id="ent0003"><rect fill="#D5F5E3" height="51.1328" rx="7" ry="7" style="stroke:#27AE60;stroke-width:1.6;" width="144.0117" x="304" y="83.5781"/><text fill="#196F3D" font-family="'Helvetica Neue'" font-size="13" font-weight="bold" lengthAdjust="spacing" textLength="108.0117" x="322" y="113.645">RPi Camera V2</text></g><!--entity Coord--><g class="entity" data-qualified-name="Coord" data-source-line="30" id="ent0015"><rect fill="#E8DAEF" height="51.1328" rx="7" ry="7" style="stroke:#8E44AD;stroke-width:1.6;" width="183.9448" x="363" y="1111.0781"/><text fill="#4A235A" font-family="'Helvetica Neue'" font-size="13" font-weight="bold" lengthAdjust="spacing" textLength="147.9448" x="381" y="1141.145">mission_coordinator</text></g><!--entity Docker--><g class="entity" data-qualified-name="Docker" data-source-line="31" id="ent0016"><rect fill="#E8DAEF" height="66.2656" rx="7" ry="7" style="stroke:#8E44AD;stroke-width:1.6;" width="146.7729" x="283.5" y="969.0781"/><text fill="#4A235A" font-family="'Helvetica Neue'" font-size="13" font-weight="bold" lengthAdjust="spacing" textLength="110.7729" x="301.5" y="999.145">docking_server</text><text fill="#4A235A" font-family="'Helvetica Neue'" font-size="13" font-weight="bold" lengthAdjust="spacing" textLength="84.4175" x="301.5" y="1014.2778">(docker.py)</text></g><!--entity Deliver--><g class="entity" data-qualified-name="Deliver" data-source-line="32" id="ent0017"><rect fill="#FADBD8" height="51.1328" rx="7" ry="7" style="stroke:#C0392B;stroke-width:1.6;" width="148.3789" x="381" y="1228.5781"/><text fill="#78281F" font-family="'Helvetica Neue'" font-size="13" font-weight="bold" lengthAdjust="spacing" textLength="112.3789" x="399" y="1258.645">delivery_server</text></g><!--entity OpenCR--><g class="entity" data-qualified-name="OpenCR" data-source-line="33" id="ent0018"><rect fill="#D5F5E3" height="66.2656" rx="7" ry="7" style="stroke:#27AE60;stroke-width:1.6;" width="128.4346" x="103" y="1103.5781"/><text fill="#196F3D" font-family="'Helvetica Neue'" font-size="13" font-weight="bold" lengthAdjust="spacing" textLength="57.9795" x="121" y="1133.645">OpenCR</text><text fill="#196F3D" font-family="'Helvetica Neue'" font-size="13" font-weight="bold" lengthAdjust="spacing" textLength="92.4346" x="121" y="1148.7778">motor driver</text></g><!--entity Servo--><g class="entity" data-qualified-name="Servo" data-source-line="34" id="ent0019"><rect fill="#D5F5E3" height="66.2656" rx="7" ry="7" style="stroke:#27AE60;stroke-width:1.6;" width="122.5947" x="393.5" y="1338.5781"/><text fill="#196F3D" font-family="'Helvetica Neue'" font-size="13" font-weight="bold" lengthAdjust="spacing" textLength="86.5947" x="411.5" y="1368.645">MG90 servo</text><text fill="#196F3D" font-family="'Helvetica Neue'" font-size="13" font-weight="bold" lengthAdjust="spacing" textLength="58.7031" x="411.5" y="1383.7778">GPIO 12</text></g><!--link Lidar to Cart--><g class="link" data-entity-1="ent0002" data-entity-2="ent0005" data-link-type="dependency" data-source-line="37" id="lnk20"><path d="M116,455.3981 C116,489.4981 116,544.4781 116,578.4681" fill="none" id="Lidar-to-Cart" style="stroke:#2C3E50;stroke-width:1.4;"/><polygon fill="#2C3E50" points="116,584.4681,120,575.4681,116,579.4681,112,575.4681,116,584.4681" style="stroke:#2C3E50;stroke-width:1.4;"/><text fill="#5D6D7E" font-family="'Helvetica Neue'" font-size="10" lengthAdjust="spacing" textLength="26.543" x="125" y="501.8604">/scan</text></g><!--link Cart to Find--><g class="link" data-entity-1="ent0005" data-entity-2="ent0006" data-link-type="dependency" data-source-line="38" id="lnk21"><path d="M116,635.6781 C116,657.1281 116,682.0881 116,703.5281" fill="none" id="Cart-to-Find" style="stroke:#2C3E50;stroke-width:1.4;"/><polygon fill="#2C3E50" points="116,709.5281,120,700.5281,116,704.5281,112,700.5281,116,709.5281" style="stroke:#2C3E50;stroke-width:1.4;"/><text fill="#5D6D7E" font-family="'Helvetica Neue'" font-size="10" lengthAdjust="spacing" textLength="25.5859" x="125" y="676.3604">/map</text></g><!--link Find to Score--><g class="link" data-entity-1="ent0006" data-entity-2="ent0007" data-link-type="dependency" data-source-line="39" id="lnk22"><path d="M116,760.6781 C116,782.1281 116,807.0881 116,828.5281" fill="none" id="Find-to-Score" style="stroke:#2C3E50;stroke-width:1.4;"/><polygon fill="#2C3E50" points="116,834.5281,120,825.5281,116,829.5281,112,825.5281,116,834.5281" style="stroke:#2C3E50;stroke-width:1.4;"/><text fill="#5D6D7E" font-family="'Helvetica Neue'" font-size="10" lengthAdjust="spacing" textLength="42.2607" x="125" y="801.3604">frontiers</text></g><!--link Score to Nav2--><g class="link" data-entity-1="ent0007" data-entity-2="ent0008" data-link-type="dependency" data-source-line="40" id="lnk23"><path d="M116,885.7881 C116,911.2181 116,944.6281 116,970.1481" fill="none" id="Score-to-Nav2" style="stroke:#2C3E50;stroke-width:1.4;"/><polygon fill="#2C3E50" points="116,976.1481,120,967.1481,116,971.1481,112,967.1481,116,976.1481" style="stroke:#2C3E50;stroke-width:1.4;"/><text fill="#5D6D7E" font-family="'Helvetica Neue'" font-size="10" lengthAdjust="spacing" textLength="53.5693" x="125" y="943.3604">/goal_pose</text></g><!--link Nav2 to OpenCR--><g class="link" data-entity-1="ent0008" data-entity-2="ent0018" data-link-type="dependency" data-source-line="41" id="lnk24"><path d="M109.47,1027.7981 C106.11,1045.5181 104.32,1069.5181 113,1088.5781 C115.42,1093.8981 114.8835,1094.267 118.7435,1098.807" fill="none" id="Nav2-to-OpenCR" style="stroke:#2C3E50;stroke-width:1.4;"/><polygon fill="#2C3E50" points="122.63,1103.3781,119.8477,1093.9304,119.3913,1099.5688,113.7529,1099.1124,122.63,1103.3781" style="stroke:#2C3E50;stroke-width:1.4;"/><text fill="#5D6D7E" font-family="'Helvetica Neue'" font-size="10" lengthAdjust="spacing" textLength="44.8047" x="122" y="1077.8604">/cmd_vel</text></g><!--link Cam to CamNode--><g class="link" data-entity-1="ent0003" data-entity-2="ent0010" data-link-type="dependency" data-source-line="44" id="lnk25"><path d="M376,134.9381 C376,167.2681 376,217.7981 376,253.3781" fill="none" id="Cam-to-CamNode" style="stroke:#2C3E50;stroke-width:1.4;"/><polygon fill="#2C3E50" points="376,259.3781,380,250.3781,376,254.3781,372,250.3781,376,259.3781" style="stroke:#2C3E50;stroke-width:1.4;"/><text fill="#5D6D7E" font-family="'Helvetica Neue'" font-size="10" lengthAdjust="spacing" textLength="37.876" x="385" y="167.8604">CSI raw</text></g><!--link CamNode to Resize--><g class="link" data-entity-1="ent0010" data-entity-2="ent0011" data-link-type="dependency" data-source-line="45" id="lnk26"><path d="M375.04,325.9181 C374.41,347.2881 373.7572,369.1907 373.1272,390.5107" fill="none" id="CamNode-to-Resize" style="stroke:#2C3E50;stroke-width:1.4;"/><polygon fill="#2C3E50" points="372.95,396.5081,377.2141,387.6302,373.0977,391.5103,369.2176,387.3939,372.95,396.5081" style="stroke:#2C3E50;stroke-width:1.4;"/><text fill="#5D6D7E" font-family="'Helvetica Neue'" font-size="10" lengthAdjust="spacing" textLength="99.0625" x="400.9443" y="358.8604">/camera/image_raw</text><text fill="#5D6D7E" font-family="'Helvetica Neue'" font-size="10" lengthAdjust="spacing" textLength="134.9512" x="383" y="370.501">1640&#215;1232 BGR888 10 Hz</text></g><!--link Resize to Rectify--><g class="link" data-entity-1="ent0011" data-entity-2="ent0012" data-link-type="dependency" data-source-line="46" id="lnk27"><path d="M372.36,462.9081 C372.72,495.2581 373.2131,538.7285 373.5731,570.9985" fill="none" id="Resize-to-Rectify" style="stroke:#2C3E50;stroke-width:1.4;"/><polygon fill="#2C3E50" points="373.64,576.9981,377.5394,567.9541,373.5842,571.9984,369.5399,568.0433,373.64,576.9981" style="stroke:#2C3E50;stroke-width:1.4;"/><text fill="#5D6D7E" font-family="'Helvetica Neue'" font-size="10" lengthAdjust="spacing" textLength="138.4326" x="382" y="495.8604">/camera/resized/image_raw</text><text fill="#5D6D7E" font-family="'Helvetica Neue'" font-size="10" lengthAdjust="spacing" textLength="46.5527" x="427.9399" y="507.501">640&#215;480</text></g><!--link Rectify to Tag--><g class="link" data-entity-1="ent0012" data-entity-2="ent0013" data-link-type="dependency" data-source-line="47" id="lnk28"><path d="M375.31,643.3981 C376.05,661.4781 376.7141,677.9432 377.4541,695.9832" fill="none" id="Rectify-to-Tag" style="stroke:#2C3E50;stroke-width:1.4;"/><polygon fill="#2C3E50" points="377.7,701.9781,381.3278,692.8217,377.4951,696.9823,373.3345,693.1496,377.7,701.9781" style="stroke:#2C3E50;stroke-width:1.4;"/><text fill="#5D6D7E" font-family="'Helvetica Neue'" font-size="10" lengthAdjust="spacing" textLength="139.6973" x="385" y="676.3604">/camera/resized/image_rect</text></g><!--link Tag to DockPosePub--><g class="link" data-entity-1="ent0013" data-entity-2="ent0014" data-link-type="dependency" data-source-line="48" id="lnk29"><path d="M385.31,768.3981 C388.83,786.4781 392.0709,803.0492 395.5909,821.0892" fill="none" id="Tag-to-DockPosePub" style="stroke:#2C3E50;stroke-width:1.4;"/><polygon fill="#2C3E50" points="396.74,826.9781,398.9424,817.3787,395.7824,822.0707,391.0904,818.9108,396.74,826.9781" style="stroke:#2C3E50;stroke-width:1.4;"/><text fill="#5D6D7E" font-family="'Helvetica Neue'" font-size="10" lengthAdjust="spacing" textLength="141.3574" x="402" y="801.3604">TF camera&#8594;tag36h11:{0,2}</text></g><!--link Tag to Coord--><g class="link" data-entity-1="ent0013" data-entity-2="ent0015" data-link-type="dependency" data-source-line="51" id="lnk30"><path d="M447.28,745.0481 C492.51,752.5581 546,764.9781 560,783.0781 C581.62,811.0381 757.75,775.5481 555,1088.5781 C549.16,1097.5981 546.1086,1101.6297 537.0586,1107.5597" fill="none" id="Tag-to-Coord" style="stroke:#2C3E50;stroke-width:1.4;"/><polygon fill="#2C3E50" points="532.04,1110.8481,541.7602,1109.2612,536.2222,1108.1078,537.3756,1102.5698,532.04,1110.8481" style="stroke:#2C3E50;stroke-width:1.4;"/><text fill="#5D6D7E" font-family="'Helvetica Neue'" font-size="10" lengthAdjust="spacing" textLength="55.8057" x="649" y="943.3604">/detections</text></g><!--link DockPosePub to Docker--><g class="link" data-entity-1="ent0014" data-entity-2="ent0016" data-link-type="dependency" data-source-line="52" id="lnk31"><path d="M392.45,893.1981 C385.02,915.7981 376.9825,940.2478 369.5325,962.9278" fill="none" id="DockPosePub-to-Docker" style="stroke:#2C3E50;stroke-width:1.4;"/><polygon fill="#2C3E50" points="367.66,968.6281,374.2689,961.3259,369.2204,963.8778,366.6685,958.8293,367.66,968.6281" style="stroke:#2C3E50;stroke-width:1.4;"/><text fill="#5D6D7E" font-family="'Helvetica Neue'" font-size="10" lengthAdjust="spacing" textLength="139.0723" x="390" y="943.3604">/detected_dock_pose_{0,2}</text></g><!--link Coord to Docker--><g class="link" data-entity-1="ent0015" data-entity-2="ent0016" data-link-type="dependency" data-source-line="54" id="lnk32"><path d="M444.81,1110.7581 C437.85,1095.2881 427.79,1075.3881 416,1059.5781 C409.64,1051.0481 406.2258,1046.8774 398.5158,1039.2874" fill="none" id="Coord-to-Docker" style="stroke:#2C3E50;stroke-width:1.4;stroke-dasharray:7,7;"/><polygon fill="#2C3E50" points="394.24,1035.0781,397.8475,1044.2425,397.8032,1038.5858,403.4598,1038.5415,394.24,1035.0781" style="stroke:#2C3E50;stroke-width:1.4;"/><text fill="#5D6D7E" font-family="'Helvetica Neue'" font-size="10" lengthAdjust="spacing" textLength="96.4551" x="442" y="1077.8604">/mission_command</text></g><!--link Docker to Coord--><g class="link" data-entity-1="ent0016" data-entity-2="ent0015" data-link-type="dependency" data-source-line="56" id="lnk34"><path d="M323.65,1035.2581 C310.51,1051.8781 301.07,1072.0681 313,1088.5781 C325.09,1105.3181 337.7179,1114.147 357.1779,1121.187" fill="none" id="Docker-to-Coord" style="stroke:#2C3E50;stroke-width:1.4;stroke-dasharray:7,7;"/><polygon fill="#2C3E50" points="362.82,1123.2281,355.7176,1116.405,358.1182,1121.5272,352.996,1123.9278,362.82,1123.2281" style="stroke:#2C3E50;stroke-width:1.4;"/><text fill="#5D6D7E" font-family="'Helvetica Neue'" font-size="10" lengthAdjust="spacing" textLength="77.2705" x="322" y="1077.8604">/mission_status</text></g><!--link Coord to Deliver--><g class="link" data-entity-1="ent0015" data-entity-2="ent0017" data-link-type="dependency" data-source-line="55" id="lnk33"><path d="M396.14,1162.1381 C387.68,1168.2181 380.12,1175.6281 375,1184.5781 C368.6,1195.7681 368.2,1202.6281 375,1213.5781 C378.52,1219.2381 378.438,1220.3435 383.638,1224.5335" fill="none" id="Coord-to-Deliver" style="stroke:#2C3E50;stroke-width:1.4;stroke-dasharray:7,7;"/><polygon fill="#2C3E50" points="388.31,1228.2981,383.8117,1219.5366,384.4166,1225.161,378.7922,1225.7659,388.31,1228.2981" style="stroke:#2C3E50;stroke-width:1.4;"/><text fill="#5D6D7E" font-family="'Helvetica Neue'" font-size="10" lengthAdjust="spacing" textLength="96.4551" x="384" y="1202.8604">/mission_command</text></g><!--link Deliver to Coord--><g class="link" data-entity-1="ent0017" data-entity-2="ent0015" data-link-type="dependency" data-source-line="57" id="lnk35"><path d="M483.96,1228.3881 C487.65,1223.8581 490.87,1218.8781 493,1213.5781 C497.82,1201.6281 497.3,1196.7281 493,1184.5781 C490.2,1176.6681 489.1447,1173.8278 483.9247,1167.1778" fill="none" id="Deliver-to-Coord" style="stroke:#2C3E50;stroke-width:1.4;stroke-dasharray:7,7;"/><polygon fill="#2C3E50" points="480.22,1162.4581,482.6307,1172.0074,483.3073,1166.3912,488.9235,1167.0678,480.22,1162.4581" style="stroke:#2C3E50;stroke-width:1.4;"/><text fill="#5D6D7E" font-family="'Helvetica Neue'" font-size="10" lengthAdjust="spacing" textLength="77.2705" x="505" y="1202.8604">/mission_status</text></g><!--link Docker to OpenCR--><g class="link" data-entity-1="ent0016" data-entity-2="ent0018" data-link-type="dependency" data-source-line="59" id="lnk36"><path d="M283.42,1032.6881 C267.79,1040.4081 251.85,1049.4581 238,1059.5781 C221.09,1071.9381 208.8491,1084.1649 196.2291,1098.7949" fill="none" id="Docker-to-OpenCR" style="stroke:#2C3E50;stroke-width:1.4;"/><polygon fill="#2C3E50" points="192.31,1103.3381,201.2174,1099.136,195.5759,1099.5521,195.1597,1093.9106,192.31,1103.3381" style="stroke:#2C3E50;stroke-width:1.4;"/><text fill="#5D6D7E" font-family="'Helvetica Neue'" font-size="10" lengthAdjust="spacing" textLength="44.8047" x="247" y="1077.8604">/cmd_vel</text></g><!--link Deliver to Servo--><g class="link" data-entity-1="ent0017" data-entity-2="ent0019" data-link-type="dependency" data-source-line="60" id="lnk37"><path d="M455,1279.8581 C455,1296.9581 455,1313.8581 455,1332.3781" fill="none" id="Deliver-to-Servo" style="stroke:#2C3E50;stroke-width:1.4;"/><polygon fill="#2C3E50" points="455,1338.3781,459,1329.3781,455,1333.3781,451,1329.3781,455,1338.3781" style="stroke:#2C3E50;stroke-width:1.4;"/><text fill="#5D6D7E" font-family="'Helvetica Neue'" font-size="10" lengthAdjust="spacing" textLength="24.5459" x="464" y="1312.8604">PWM</text></g><?plantuml-src bLNDRjD04BxxAOPme0ZQE2wK4WLB9MaBA8KeGN29P6tjRRgglMljRbe2GkB40o0a7eKxl0bFmlvudRL94EGKptxVpEpCVBEt24tpPOOX4NALupsoBF8Wa4Jc60RdyOIJ0l4LZ914S9Apcq7tF9xJWI3lSRyNnOEKvOptRpyS7OmU7SV7xqhrYIHX57vyXn6ME5r_vEGQyzMWQpZneAkTn44WhWWj4KS5S4Il12vXF_ICb6NO61y6mHruulrWXgbWN3ICGSgAab5C9NJ6ezbk6C6OZ8wc7R0_9DHtXZZ0O41O7FluwOJ041MO8tWJTMgyCkb_5RwTn4jqJHRsoZcY67R6g9IilDlCgaJf5LfWwBJXlpvz1Slew5ZgUApD7m80BxCXuf8jE2elCOVP-EYiOnFZiecx83HBBZYZac0kEjK5JfIrYHCfupX12bmo8HrkfgrDeCed0Y5Lzgw0LPPHyF6FKammJt7fbK8N59MSv18jaeobggaBvPrAH2ZcsqhKTgDBf3pDwNPNfXoQjwbugMbfmfcOKzlUbsgcl85GHcrfijJWBt1ISfREwHJhMMsnhF5l93Nx5okFPKZ6s6JLzp8f7kclrsZXY8gblfgCp2WBPwOIkeTuJilbUKw46f3aGtW_-cXACbB74tKwMPvlwDUGCPuHYYJZS0zGAfVwxtOz5KG8rPKaNVEg18qden5prfHLrQr4OAuMm9pkQ0FcU-NgRfsa6klDt6fhL6Il_DK-KJI7QJ9VbPWEftDQC7szZ1DBLqnxica1d9q-3a57OdDwEdd-2dfHTS6PDcvV0derzhKixCGs2bYj6zZTZOrYTVvzg5Pe67T5YgXRXkvSOxLgszW2bGxgZZNK2BS9hPU0mpkCnXjLjrml6ChD93c20sc2AvbFI8iikSPvlSStbgIjvKPbgiLQryQeq8ynd3rNZyBDkZeMOV5MVwsSZBoxLePhPlrYXN7lu47uyrilse_WwUdqyF0GUY4yU-z2EASkX57hfX3S0BE_XJAH7Xo6Qz_Mc_MjD0tj7cpshMZEXIDP5vwwVJUlJy0w-lNvYzeg-mUNlLxVx8HjlNh121M097ZARhPg7TXroohUppvpptqzStw2TSPAit-o_5MMD7DrksLlh-OtDL5lfQ9GBrezB3wjsXN_G7CHDCsvs4HJRw9ShYzQ1VW_LXti7oNceXZ9Lml9Wq_UdZdaRm00?></g></svg>