<?plantuml 1.2026.1?><svg xmlns="http://www.w3.org/2000/svg" xmlns:xlink="http://www.w3.org/1999/xlink" contentStyleType="text/css" data-diagram-type="STATE" height="867px" preserveAspectRatio="none" style="width:983px;height:867px;background:#FFFFFF;" version="1.1" viewBox="0 0 983 867" width="983px" zoomAndPan="magnify"><title>&lt;b&gt;Docking FSM &#8212; docker.py&lt;/b&gt;
&lt;size:12&gt;&lt;color:#5D6D7E&gt;Geometric visual servoing &#183; staging 0.40 m &#183; stop 0.10 m&lt;/color&gt;&lt;/size&gt;</title><defs/><g><g class="title" data-source-line="3"><text fill="#1B4F72" font-family="'Helvetica Neue'" font-size="22" font-weight="bold" lengthAdjust="spacing" textLength="320.4932" x="324.6343" y="38.4209">Docking FSM &#8212; docker.py</text><text fill="#5D6D7E" font-family="'Helvetica Neue'" font-size="12" font-weight="bold" lengthAdjust="spacing" textLength="383.7422" x="293.0098" y="54.748">Geometric visual servoing &#183; staging 0.40 m &#183; stop 0.10 m</text></g><rect fill="#EAF4FB" height="40" rx="7" ry="7" style="stroke:#2E86C1;stroke-width:1.6;" width="53.7471" x="507" y="689.5781"/><text fill="#5D6D7E" font-family="'Helvetica Neue'" font-size="11" font-weight="bold" lengthAdjust="spacing" textLength="27.7471" x="520" y="713.3862">IDLE</text><rect fill="#EAF4FB" height="40" rx="7" ry="7" style="stroke:#2E86C1;stroke-width:1.6;" width="135.3823" x="20.5" y="821.5781"/><text fill="#5D6D7E" font-family="'Helvetica Neue'" font-size="11" font-weight="bold" lengthAdjust="spacing" textLength="109.3823" x="33.5" y="845.3862">NAV_TO_STAGING</text><rect fill="#EAF4FB" height="40" rx="7" ry="7" style="stroke:#2E86C1;stroke-width:1.6;" width="160.1753" x="279" y="88.5781"/><text fill="#5D6D7E" font-family="'Helvetica Neue'" font-size="11" font-weight="bold" lengthAdjust="spacing" textLength="134.1753" x="292" y="112.3862">COMPUTE_GEOMETRY</text><rect fill="#EAF4FB" height="40" rx="7" ry="7" style="stroke:#2E86C1;stroke-width:1.6;" width="93.939" x="464" y="203.5781"/><text fill="#5D6D7E" font-family="'Helvetica Neue'" font-size="11" font-weight="bold" lengthAdjust="spacing" textLength="67.939" x="477" y="227.3862">INTERCEPT</text><rect fill="#EAF4FB" height="40" rx="7" ry="7" style="stroke:#2E86C1;stroke-width:1.6;" width="99.1973" x="466.5" y="325.0781"/><text fill="#5D6D7E" font-family="'Helvetica Neue'" font-size="11" font-weight="bold" lengthAdjust="spacing" textLength="73.1973" x="479.5" y="348.8862">SQUARE_UP</text><rect fill="#EAF4FB" height="40" rx="7" ry="7" style="stroke:#2E86C1;stroke-width:1.6;" width="155.0942" x="345.5" y="447.0781"/><text fill="#5D6D7E" font-family="'Helvetica Neue'" font-size="11" font-weight="bold" lengthAdjust="spacing" textLength="129.0942" x="358.5" y="470.8862">EVALUATE_POSITION</text><rect fill="#F5B7B1" height="40" rx="7" ry="7" style="stroke:#922B21;stroke-width:1.6;" width="121.9116" x="159" y="568.5781"/><text fill="#641E16" font-family="'Helvetica Neue'" font-size="11" font-weight="bold" lengthAdjust="spacing" textLength="95.9116" x="172" y="592.3862">RETRY_BACKUP</text><rect fill="#EAF4FB" height="40" rx="7" ry="7" style="stroke:#2E86C1;stroke-width:1.6;" width="117.5879" x="507" y="568.5781"/><text fill="#5D6D7E" font-family="'Helvetica Neue'" font-size="11" font-weight="bold" lengthAdjust="spacing" textLength="91.5879" x="520" y="592.3862">FINAL_PLUNGE</text><rect fill="#E8DAEF" height="40" rx="7" ry="7" style="stroke:#8E44AD;stroke-width:1.6;" width="101.5444" x="561" y="821.5781"/><text fill="#4A235A" font-family="'Helvetica Neue'" font-size="11" font-weight="bold" lengthAdjust="spacing" textLength="75.5444" x="574" y="845.3862">UNDOCKING</text><ellipse cx="452" cy="588.5781" fill="#222222" rx="10" ry="10" style="stroke:#222222;stroke-width:1;"/><ellipse cx="884" cy="841.5781" fill="none" rx="11" ry="11" style="stroke:#222222;stroke-width:1;"/><ellipse cx="884" cy="841.5781" fill="#222222" rx="6" ry="6" style="stroke:#222222;stroke-width:1;"/><g class="entity" data-qualified-name="GMN2" data-source-line="43" id="ent0003"><path d="M484.5,89.5781 L484.5,104.5781 L439.29,108.5781 L484.5,112.5781 L484.5,127.1875 A7,7 0 0 0 491.5,134.1875 L652.9292,134.1875 A7,7 0 0 0 659.9292,127.1875 L659.9292,92.5781 L649.9292,82.5781 L491.5,82.5781 A7,7 0 0 0 484.5,89.5781" fill="#FDEBD0" style="stroke:#D68910;stroke-width:1.2;"/><path d="M649.9292,82.5781 L649.9292,89.0781 A3.5,3.5 0 0 0 653.4292,92.5781 L659.9292,92.5781 L649.9292,82.5781" fill="#FDEBD0" style="stroke:#D68910;stroke-width:1.2;"/><text fill="#7E5109" font-family="'Helvetica Neue'" font-size="11" lengthAdjust="spacing" textLength="101.5942" x="498.5" y="105.7886">Master stopwatch:</text><text fill="#7E5109" font-family="'Helvetica Neue'" font-size="11" font-weight="bold" lengthAdjust="spacing" textLength="33.3384" x="603.5908" y="105.7886">180 s</text><text fill="#7E5109" font-family="'Helvetica Neue'" font-size="11" lengthAdjust="spacing" textLength="125.5171" x="498.5" y="118.5933">hard abort if exceeded</text></g><!--link *start* to IDLE--><g class="link" data-entity-1="ent0002" data-entity-2="ent0002" data-link-type="dependency" data-source-line="15" id="lnk3"><path d="M457.38,597.3881 C470.14,615.8981 499.1046,657.9482 517.4346,684.5382" fill="none" id="*start*-to-IDLE" style="stroke:#2C3E50;stroke-width:1.4;"/><polygon fill="#2C3E50" points="520.84,689.4781,519.0252,679.7979,518.0022,685.3615,512.4386,684.3384,520.84,689.4781" style="stroke:#2C3E50;stroke-width:1.4;"/></g><!--link IDLE to NAV--><g class="link" data-entity-1="ent0002" data-entity-2="ent0003" data-link-type="dependency" data-source-line="17" id="lnk4"><path d="M506.73,713.1681 C470.88,717.3181 406.54,727.3681 356,749.5781 C319.2,765.7481 318.94,785.7181 282,801.5781 C241.91,818.7881 199.7902,827.6733 161.5402,833.1133" fill="none" id="IDLE-to-NAV" style="stroke:#2C3E50;stroke-width:1.4;"/><polygon fill="#2C3E50" points="155.6,833.9581,165.0736,836.651,160.5502,833.2541,163.9471,828.7307,155.6,833.9581" style="stroke:#2C3E50;stroke-width:1.4;"/><text fill="#5D6D7E" font-family="'Helvetica Neue'" font-size="10" lengthAdjust="spacing" textLength="84.6436" x="388.1421" y="773.3604">START_DOCKING</text><text fill="#5D6D7E" font-family="'Helvetica Neue'" font-size="10" lengthAdjust="spacing" textLength="130.9277" x="365" y="785.001">(from /mission_command)</text></g><!--link NAV to IDLE--><g class="link" data-entity-1="ent0003" data-entity-2="ent0002" data-link-type="dependency" data-source-line="22" id="lnk8"><path d="M78.22,821.2081 C69.43,800.7281 60.37,768.7781 78,749.5781 C107.08,717.8981 407.1104,711.9779 500.8604,710.8879" fill="none" id="NAV-to-IDLE" style="stroke:#2C3E50;stroke-width:1.4;"/><polygon fill="#2C3E50" points="506.86,710.8181,497.8141,706.923,501.8603,710.8763,497.9071,714.9225,506.86,710.8181" style="stroke:#2C3E50;stroke-width:1.4;"/><text fill="#5D6D7E" font-family="'Helvetica Neue'" font-size="10" lengthAdjust="spacing" textLength="175.8154" x="87" y="773.3604">Nav2 rejected (fallback exhausted)</text><text fill="#5D6D7E" font-family="'Helvetica Neue'" font-size="10" lengthAdjust="spacing" textLength="87.4219" x="131.1968" y="785.001">DOCKING_FAILED</text></g><!--link IDLE to COMP--><g class="link" data-entity-1="ent0002" data-entity-2="ent0004" data-link-type="dependency" data-source-line="18" id="lnk5"><path d="M561.26,708.5281 C593.26,707.0081 646.02,699.6581 678,669.5781 C705.33,643.8681 705,627.1081 705,589.5781 C705,222.5781 705,222.5781 705,222.5781 C705,107.7181 574.02,159.9581 462,134.5781 C453.65,132.6881 450.779,132.0387 442.109,129.9887" fill="none" id="IDLE-to-COMP" style="stroke:#2C3E50;stroke-width:1.4;"/><polygon fill="#2C3E50" points="436.27,128.6081,444.1081,134.5717,441.1358,129.7586,445.9489,126.7864,436.27,128.6081" style="stroke:#2C3E50;stroke-width:1.4;"/><text fill="#5D6D7E" font-family="'Helvetica Neue'" font-size="10" lengthAdjust="spacing" textLength="71.0742" x="721.959" y="403.8604">already within</text><text fill="#5D6D7E" font-family="'Helvetica Neue'" font-size="10" lengthAdjust="spacing" textLength="86.9922" x="714" y="415.501">staging + 0.20 m</text></g><!--link IDLE to UND--><g class="link" data-entity-1="ent0002" data-entity-2="ent0010" data-link-type="dependency" data-source-line="19" id="lnk6"><path d="M524.93,729.6481 C517.05,749.2881 508.9,779.9981 523,801.5781 C531.68,814.8481 540.4023,821.4269 555.0323,827.2269" fill="none" id="IDLE-to-UND" style="stroke:#2C3E50;stroke-width:1.4;"/><polygon fill="#2C3E50" points="560.61,829.4381,553.7177,822.4028,555.9619,827.5954,550.7693,829.8397,560.61,829.4381" style="stroke:#2C3E50;stroke-width:1.4;"/><text fill="#5D6D7E" font-family="'Helvetica Neue'" font-size="10" lengthAdjust="spacing" textLength="99.4434" x="532" y="779.3604">START_UNDOCKING</text></g><!--link UND to IDLE--><g class="link" data-entity-1="ent0010" data-entity-2="ent0002" data-link-type="dependency" data-source-line="38" id="lnk18"><path d="M634.1,821.4881 C639.33,815.6881 644.2,808.8881 647,801.5781 C655.26,779.9981 660.41,768.3981 647,749.5781 C627.61,722.3681 593.8843,714.5134 567.0943,712.0234" fill="none" id="UND-to-IDLE" style="stroke:#2C3E50;stroke-width:1.4;"/><polygon fill="#2C3E50" points="561.12,711.4681,569.7112,716.2839,566.0985,711.9309,570.4516,708.3182,561.12,711.4681" style="stroke:#2C3E50;stroke-width:1.4;"/><text fill="#5D6D7E" font-family="'Helvetica Neue'" font-size="10" lengthAdjust="spacing" textLength="82.5195" x="683.1992" y="773.3604">0.20 m reversed</text><text fill="#5D6D7E" font-family="'Helvetica Neue'" font-size="10" lengthAdjust="spacing" textLength="120.918" x="664" y="785.001">UNDOCKING_COMPLETE</text></g><!--link NAV to COMP--><g class="link" data-entity-1="ent0003" data-entity-2="ent0004" data-link-type="dependency" data-source-line="21" id="lnk7"><path d="M66.03,821.3681 C41.74,797.8881 6,755.6781 6,710.5781 C6,222.5781 6,222.5781 6,222.5781 C6,165.6281 168.807,134.2332 272.957,119.7732" fill="none" id="NAV-to-COMP" style="stroke:#2C3E50;stroke-width:1.4;"/><polygon fill="#2C3E50" points="278.9,118.9481,269.4354,116.2238,273.9475,119.6357,270.5356,124.1478,278.9,118.9481" style="stroke:#2C3E50;stroke-width:1.4;"/><text fill="#5D6D7E" font-family="'Helvetica Neue'" font-size="10" lengthAdjust="spacing" textLength="91.0547" x="15" y="464.8604">Nav2 SUCCEEDED</text><text fill="#5D6D7E" font-family="'Helvetica Neue'" font-size="10" lengthAdjust="spacing" textLength="82.8613" x="19.0967" y="476.501">or 60 s deadlock</text></g><!--link COMP to INT--><g class="link" data-entity-1="ent0004" data-entity-2="ent0005" data-link-type="dependency" data-source-line="24" id="lnk9"><path d="M384.78,128.7481 C412.82,149.5881 452.5456,179.1174 480.5256,199.9274" fill="none" id="COMP-to-INT" style="stroke:#2C3E50;stroke-width:1.4;"/><polygon fill="#2C3E50" points="485.34,203.5081,480.5055,194.9275,481.328,200.5242,475.7312,201.3467,485.34,203.5081" style="stroke:#2C3E50;stroke-width:1.4;"/><text fill="#5D6D7E" font-family="'Helvetica Neue'" font-size="10" lengthAdjust="spacing" textLength="71.2109" x="466" y="172.8604">cache initial_x</text></g><!--link INT to SQU--><g class="link" data-entity-1="ent0005" data-entity-2="ent0006" data-link-type="dependency" data-source-line="26" id="lnk10"><path d="M511.8,243.7781 C512.74,266.0781 514.0198,296.6533 514.9498,318.9333" fill="none" id="INT-to-SQU" style="stroke:#2C3E50;stroke-width:1.4;"/><polygon fill="#2C3E50" points="515.2,324.9281,518.8212,315.7691,514.9915,319.9325,510.8281,316.1028,515.2,324.9281" style="stroke:#2C3E50;stroke-width:1.4;"/><text fill="#5D6D7E" font-family="'Helvetica Neue'" font-size="10" lengthAdjust="spacing" textLength="80.3223" x="527.9463" y="281.8604">|Y err| &#8804; 0.03 m</text><text fill="#5D6D7E" font-family="'Helvetica Neue'" font-size="10" lengthAdjust="spacing" textLength="90.2148" x="523" y="293.501">or x &lt; 0.3&#183;staging</text></g><!--link SQU to EVAL--><g class="link" data-entity-1="ent0006" data-entity-2="ent0007" data-link-type="dependency" data-source-line="27" id="lnk11"><path d="M501.26,365.0881 C483.95,387.4281 459.0649,419.5452 441.6549,442.0152" fill="none" id="SQU-to-EVAL" style="stroke:#2C3E50;stroke-width:1.4;"/><polygon fill="#2C3E50" points="437.98,446.7581,446.6543,442.0937,441.0424,442.8057,440.3304,437.1938,437.98,446.7581" style="stroke:#2C3E50;stroke-width:1.4;"/><text fill="#5D6D7E" font-family="'Helvetica Neue'" font-size="10" lengthAdjust="spacing" textLength="101.2842" x="492" y="409.8604">|yaw err| &#8804; 0.05 rad</text></g><!--link EVAL to FIN--><g class="link" data-entity-1="ent0007" data-entity-2="ent0009" data-link-type="dependency" data-source-line="29" id="lnk12"><path d="M498.47,487.1981 C509.94,492.4581 520.95,499.1381 530,507.5781 C547.48,523.8881 555.5116,544.4914 560.3116,562.4614" fill="none" id="EVAL-to-FIN" style="stroke:#2C3E50;stroke-width:1.4;"/><polygon fill="#2C3E50" points="561.86,568.2581,563.4019,558.5307,560.5697,563.4275,555.6729,560.5952,561.86,568.2581" style="stroke:#2C3E50;stroke-width:1.4;"/><text fill="#5D6D7E" font-family="'Helvetica Neue'" font-size="10" lengthAdjust="spacing" textLength="80.3223" x="563" y="531.8604">|Y err| &#8804; 0.40 m</text></g><!--link EVAL to FIN--><g class="link" data-entity-1="ent0007" data-entity-2="ent0009" data-link-type="dependency" data-source-line="32" id="lnk15"><path d="M413.44,487.3881 C406.18,505.1281 399.52,531.2281 413,548.5781 C414.54,550.5581 458.5903,561.6289 500.9803,571.9489" fill="none" id="EVAL-to-FIN-1" style="stroke:#2C3E50;stroke-width:1.4;"/><polygon fill="#2C3E50" points="506.81,573.3681,499.0116,567.3527,501.9519,572.1854,497.1192,575.1257,506.81,573.3681" style="stroke:#2C3E50;stroke-width:1.4;"/><text fill="#5D6D7E" font-family="'Helvetica Neue'" font-size="10" lengthAdjust="spacing" textLength="88.1201" x="422" y="525.8604">retries exhausted</text><text fill="#5D6D7E" font-family="'Helvetica Neue'" font-size="10" lengthAdjust="spacing" textLength="83.8916" x="424.1143" y="537.501">(plunge anyway)</text></g><!--link EVAL to RB--><g class="link" data-entity-1="ent0007" data-entity-2="ent0008" data-link-type="dependency" data-source-line="30" id="lnk13"><path d="M345.18,478.7581 C321.79,484.5981 297.04,493.6281 277,507.5781 C254.74,523.0681 240.8868,544.8386 231.4968,563.1586" fill="none" id="EVAL-to-RB" style="stroke:#2C3E50;stroke-width:1.4;"/><polygon fill="#2C3E50" points="228.76,568.4981,236.4248,562.3134,231.0406,564.0486,229.3055,558.6644,228.76,568.4981" style="stroke:#2C3E50;stroke-width:1.4;"/><text fill="#5D6D7E" font-family="'Helvetica Neue'" font-size="10" lengthAdjust="spacing" textLength="99.0967" x="286" y="525.8604">|Y err| &gt; 0.40 m &amp;&amp;</text><text fill="#5D6D7E" font-family="'Helvetica Neue'" font-size="10" lengthAdjust="spacing" textLength="85.2246" x="292.936" y="537.501">runway too short</text></g><!--link EVAL to COMP--><g class="link" data-entity-1="ent0007" data-entity-2="ent0004" data-link-type="dependency" data-source-line="31" id="lnk14"><path d="M413.21,446.8281 C398.73,417.1881 372.21,358.1581 362,304.5781 C349.9,241.0481 353.6765,169.747 356.6365,134.597" fill="none" id="EVAL-to-COMP" style="stroke:#2C3E50;stroke-width:1.4;"/><polygon fill="#2C3E50" points="357.14,128.6181,352.3989,137.2507,356.7204,133.6005,360.3707,137.922,357.14,128.6181" style="stroke:#2C3E50;stroke-width:1.4;"/><text fill="#5D6D7E" font-family="'Helvetica Neue'" font-size="10" lengthAdjust="spacing" textLength="99.0967" x="382.1719" y="281.8604">|Y err| &gt; 0.40 m &amp;&amp;</text><text fill="#5D6D7E" font-family="'Helvetica Neue'" font-size="10" lengthAdjust="spacing" textLength="121.4404" x="371" y="293.501">runway sufficient (retry)</text></g><!--link RB to COMP--><g class="link" data-entity-1="ent0008" data-entity-2="ent0004" data-link-type="dependency" data-source-line="34" id="lnk16"><path d="M210.08,568.2681 C199.12,545.1081 183,504.7781 183,468.0781 C183,222.5781 183,222.5781 183,222.5781 C183,173.2881 226.823,146.4692 273.313,130.2992" fill="none" id="RB-to-COMP" style="stroke:#2C3E50;stroke-width:1.4;"/><polygon fill="#2C3E50" points="278.98,128.3281,269.1655,127.5067,274.2575,129.9707,271.7936,135.0627,278.98,128.3281" style="stroke:#2C3E50;stroke-width:1.4;"/><text fill="#5D6D7E" font-family="'Helvetica Neue'" font-size="10" lengthAdjust="spacing" textLength="63.9209" x="205.147" y="342.8604">backup 2.0 s</text><text fill="#5D6D7E" font-family="'Helvetica Neue'" font-size="10" lengthAdjust="spacing" textLength="90.2148" x="192" y="354.501">or x &#8805; 0.7&#183;staging</text></g><!--link FIN to IDLE--><g class="link" data-entity-1="ent0009" data-entity-2="ent0002" data-link-type="dependency" data-source-line="36" id="lnk17"><path d="M555.18,608.9581 C552.14,615.0781 549.1,621.9781 547,628.5781 C540.57,648.8281 537.8236,667.0596 536.1336,683.4996" fill="none" id="FIN-to-IDLE" style="stroke:#2C3E50;stroke-width:1.4;"/><polygon fill="#2C3E50" points="535.52,689.4681,540.4194,680.9243,536.0313,684.4943,532.4613,680.1063,535.52,689.4681" style="stroke:#2C3E50;stroke-width:1.4;"/><text fill="#5D6D7E" font-family="'Helvetica Neue'" font-size="10" lengthAdjust="spacing" textLength="92.1729" x="562.9727" y="646.8604">x &#8722; stop &#8804; 0.01 m</text><text fill="#5D6D7E" font-family="'Helvetica Neue'" font-size="10" lengthAdjust="spacing" textLength="106.1182" x="556" y="658.501">DOCKING_COMPLETE</text></g><!--link IDLE to *end*--><g class="link" data-entity-1="ent0002" data-entity-2="ent0019" data-link-type="dependency" data-source-line="40" id="lnk20"><path d="M561.13,712.1181 C620.99,715.9081 762.36,727.0181 804,749.5781 C840.44,769.3181 865.1804,807.366 876.0304,826.246" fill="none" id="IDLE-to-*end*" style="stroke:#2C3E50;stroke-width:1.4;"/><polygon fill="#2C3E50" points="879.02,831.4481,878.0037,821.6518,876.5287,827.113,871.0675,825.638,879.02,831.4481" style="stroke:#2C3E50;stroke-width:1.4;"/><text fill="#5D6D7E" font-family="'Helvetica Neue'" font-size="10" lengthAdjust="spacing" textLength="95.6543" x="869.5537" y="767.8604">docking complete /</text><text fill="#5D6D7E" font-family="'Helvetica Neue'" font-size="10" lengthAdjust="spacing" textLength="81.6602" x="876.5508" y="779.501">docking failed &#8594;</text><text fill="#5D6D7E" font-family="'Helvetica Neue'" font-size="10" lengthAdjust="spacing" textLength="100.7617" x="867" y="791.1416">mission_coordinator</text></g><?plantuml-src bLNDRjf04BxxAQPKYf9M0KB-giYoHC11ACHGC96Yjh8MUu5jZHUjRHAg77ggcclKHsYV8VSyIfwaimlUr3MjL0xW7Rxzvk-RyGiM-M4QKF3YP1dICajdeM4aB0afc2EhoVrFB9h0sU02dhvyXm3FL9JdIxCoijv7Pim-qvEzccNwFEJYvELXywXvR5ijocSq4So71OjJ4a9CnO9BeiS7Y1CoaO_Lya4LPYiBd-Dn3uzcHJ5PPaLIMuQ1w8H2gTtis2N8VKWCqfeXdFgbvtQzWLjljPrMQOr0QmPeT2zwGzVsMdRtmdRxLoK5a5Rjn77jViFkkQMS4yVD08EtmthVzeQz702j6S2-h7U6TNJIwmxQRhlhb2H0MZD4NxhsJkkDSys2YFuf_fhccAHXObaPzgpjr3jUhpDqMlOp5gqPOEWqkutpBDqCW5P9vdCk0YGpthtw0BkxrgfQXlnMHomDuazWtSIgXQNhkzwQSTq0tUEgjJqMV0QL6OjZnYFFvxCPYOATh5EQLrOqnqj2GKcmX6kMJ5bK9Cu4yHerK5CQ-8DH9LICL6UlnQ9IsXY3GnOr60mR3TjksirY35p0KHLY233I44MUKMf65Ko1KT2Fr4ze0DjZ4eOZudy2UZCbQOosdQANTRpUMRtTqL4OXefMEN7SVA8-yQSKMCGIHaBlHjzGG7a3jPU_SNi5L8XRUBhxWUMixkjovfEz0HF_tdzyM1S_OrPyabXgDa-y9DSvwaCG9D0HARoyYFByLqG7lpLOtr7ottJ7ohR4rbOn3P56rsG92USGJxb82hG55VmFRPoEnyndD4fWM-0oM-uK-0kfIXoZyRC6DapHF4oZ2GKIBT6BvZHK2JO6BLMLpg5MHdt-fPTFTpyne-D2DmqLuKRvugLlzwlDk-xdtYQfP8gLKNLirzRCQYOtCg-664TZGKMygGHwRekiUkJbpign1kit4QwTUKXn-LMAn1bcJ5Y8C_dqzRw8ULvVk1rPH18kjFU88wzWasa2VBnwCm1S46oaK9Mw9ea_FP7lnRqtgXaZ2m5J8W8W8nGWi36stgSqe851em0aeV4B?></g></svg>