<?plantuml 1.2026.1?><svg xmlns="http://www.w3.org/2000/svg" xmlns:xlink="http://www.w3.org/1999/xlink" contentStyleType="text/css" data-diagram-type="STATE" height="1023px" preserveAspectRatio="none" style="width:1518px;height:1023px;background:#FFFFFF;" version="1.1" viewBox="0 0 1518 1023" width="1518px" zoomAndPan="magnify"><title>&lt;b&gt;Mission Coordination FSM &#8212; mission_coordinator_v3&lt;/b&gt;
&lt;size:12&gt;&lt;color:#5D6D7E&gt;1200 s master &#183; 480 s explore timeout &#183; 90 s delivery timeout&lt;/color&gt;&lt;/size&gt;</title><defs/><g><g class="title" data-source-line="3"><text fill="#1B4F72" font-family="'Helvetica Neue'" font-size="22" font-weight="bold" lengthAdjust="spacing" textLength="650.2139" x="427.1613" y="38.4209">Mission Coordination FSM &#8212; mission_coordinator_v3</text><text fill="#5D6D7E" font-family="'Helvetica Neue'" font-size="12" font-weight="bold" lengthAdjust="spacing" textLength="414.9316" x="544.8025" y="54.748">1200 s master &#183; 480 s explore timeout &#183; 90 s delivery timeout</text></g><rect fill="#EAF4FB" height="40" rx="7" ry="7" style="stroke:#2E86C1;stroke-width:1.6;" width="50.895" x="877.81" y="143.5781"/><text fill="#5D6D7E" font-family="'Helvetica Neue'" font-size="11" font-weight="bold" lengthAdjust="spacing" textLength="24.895" x="890.81" y="167.3862">INIT</text><rect fill="#EAF4FB" height="40" rx="7" ry="7" style="stroke:#2E86C1;stroke-width:1.6;" width="97.2153" x="854.81" y="252.5781"/><text fill="#5D6D7E" font-family="'Helvetica Neue'" font-size="11" font-weight="bold" lengthAdjust="spacing" textLength="71.2153" x="867.81" y="276.3862">EXPLORING</text><rect fill="#E8DAEF" height="40" rx="7" ry="7" style="stroke:#8E44AD;stroke-width:1.6;" width="83.4063" x="564.81" y="384.5781"/><text fill="#4A235A" font-family="'Helvetica Neue'" font-size="11" font-weight="bold" lengthAdjust="spacing" textLength="57.4063" x="577.81" y="408.3862">DOCKING</text><rect fill="#FADBD8" height="40" rx="7" ry="7" style="stroke:#C0392B;stroke-width:1.6;" width="100.5723" x="305.81" y="528.0781"/><text fill="#78281F" font-family="'Helvetica Neue'" font-size="11" font-weight="bold" lengthAdjust="spacing" textLength="74.5723" x="318.81" y="551.8862">DELIVERING</text><rect fill="#E8DAEF" height="40" rx="7" ry="7" style="stroke:#8E44AD;stroke-width:1.6;" width="101.5444" x="53.31" y="649.5781"/><text fill="#4A235A" font-family="'Helvetica Neue'" font-size="11" font-weight="bold" lengthAdjust="spacing" textLength="75.5444" x="66.31" y="673.3862">UNDOCKING</text><rect fill="#FDEBD0" height="40" rx="7" ry="7" style="stroke:#D68910;stroke-width:1.6;" width="98.0264" x="554.31" y="787.5781"/><text fill="#7E5109" font-family="'Helvetica Neue'" font-size="11" font-weight="bold" lengthAdjust="spacing" textLength="72.0264" x="567.31" y="811.3862">SEARCHING</text><rect fill="#F4D03F" height="40" rx="7" ry="7" style="stroke:#B7950B;stroke-width:1.6;" width="151.0068" x="234.81" y="914.5781"/><text fill="#7D6608" font-family="'Helvetica Neue'" font-size="11" font-weight="bold" lengthAdjust="spacing" textLength="125.0068" x="247.81" y="938.3862">MISSION_COMPLETE</text><rect fill="#F5B7B1" height="40" rx="7" ry="7" style="stroke:#922B21;stroke-width:1.6;" width="155.5078" x="448.31" y="914.5781"/><text fill="#641E16" font-family="'Helvetica Neue'" font-size="11" font-weight="bold" lengthAdjust="spacing" textLength="129.5078" x="461.31" y="938.3862">MISSION_TIMED_OUT</text><ellipse cx="903.31" cy="92.5781" fill="#222222" rx="10" ry="10" style="stroke:#222222;stroke-width:1;"/><ellipse cx="409.31" cy="1006.5781" fill="none" rx="11" ry="11" style="stroke:#222222;stroke-width:1;"/><ellipse cx="409.31" cy="1006.5781" fill="#222222" rx="6" ry="6" style="stroke:#222222;stroke-width:1;"/><!--link *start* to INIT--><g class="link" data-entity-1="ent0002" data-entity-2="ent0002" data-link-type="dependency" data-source-line="14" id="lnk3"><path d="M903.31,102.5981 C903.31,112.8981 903.31,124.0481 903.31,137.3781" fill="none" id="*start*-to-INIT" style="stroke:#2C3E50;stroke-width:1.4;"/><polygon fill="#2C3E50" points="903.31,143.3781,907.31,134.3781,903.31,138.3781,899.31,134.3781,903.31,143.3781" style="stroke:#2C3E50;stroke-width:1.4;"/></g><!--link INIT to EXP--><g class="link" data-entity-1="ent0002" data-entity-2="ent0003" data-link-type="dependency" data-source-line="15" id="lnk4"><path d="M903.31,183.7081 C903.31,203.0681 903.31,226.8281 903.31,246.2581" fill="none" id="INIT-to-EXP" style="stroke:#2C3E50;stroke-width:1.4;"/><polygon fill="#2C3E50" points="903.31,252.2581,907.31,243.2581,903.31,247.2581,899.31,243.2581,903.31,252.2581" style="stroke:#2C3E50;stroke-width:1.4;"/><text fill="#5D6D7E" font-family="'Helvetica Neue'" font-size="10" lengthAdjust="spacing" textLength="92.8027" x="912.31" y="221.8604">start_exploration()</text></g><!--link EXP to DOCK--><g class="link" data-entity-1="ent0003" data-entity-2="ent0004" data-link-type="dependency" data-source-line="17" id="lnk5"><path d="M854.48,277.1281 C815.25,281.4981 759.58,291.1881 715.31,312.5781 C678.46,330.3781 647.7068,359.0122 627.7268,380.0022" fill="none" id="EXP-to-DOCK" style="stroke:#2C3E50;stroke-width:1.4;"/><polygon fill="#2C3E50" points="623.59,384.3481,632.6925,380.5871,627.0373,380.7265,626.8979,375.0714,623.59,384.3481" style="stroke:#2C3E50;stroke-width:1.4;"/><text fill="#5D6D7E" font-family="'Helvetica Neue'" font-size="10" lengthAdjust="spacing" textLength="136.9482" x="724.31" y="330.8604">fresh TF to tag36h11:{0,2}</text><text fill="#5D6D7E" font-family="'Helvetica Neue'" font-size="10" lengthAdjust="spacing" textLength="65.459" x="760.0546" y="342.501">(age &lt; 0.5 s)</text></g><!--link DOCK to DEL--><g class="link" data-entity-1="ent0004" data-entity-2="ent0005" data-link-type="dependency" data-source-line="19" id="lnk6"><path d="M564.78,413.0581 C531.53,420.3481 484.61,433.5881 448.31,455.5781 C416.52,474.8381 391.2542,502.6058 374.6342,523.2358" fill="none" id="DOCK-to-DEL" style="stroke:#2C3E50;stroke-width:1.4;"/><polygon fill="#2C3E50" points="370.87,527.9081,379.6312,523.409,374.0068,524.0145,373.4013,518.3901,370.87,527.9081" style="stroke:#2C3E50;stroke-width:1.4;"/><text fill="#5D6D7E" font-family="'Helvetica Neue'" font-size="10" lengthAdjust="spacing" textLength="106.1182" x="457.31" y="479.3604">DOCKING_COMPLETE</text><text fill="#5D6D7E" font-family="'Helvetica Neue'" font-size="10" lengthAdjust="spacing" textLength="97.8271" x="461.4555" y="491.001">&amp;&amp; enable_delivery</text></g><!--link DOCK to UND--><g class="link" data-entity-1="ent0004" data-entity-2="ent0006" data-link-type="dependency" data-source-line="20" id="lnk7"><path d="M564.81,411.0881 C483.33,423.1381 298.29,456.5981 159.31,527.5781 C118.22,548.5681 96.26,547.4681 75.31,588.5781 C67.03,604.8181 69.58,612.2781 75.31,629.5781 C77.64,636.6281 78.187,638.6479 82.637,644.5479" fill="none" id="DOCK-to-UND" style="stroke:#2C3E50;stroke-width:1.4;"/><polygon fill="#2C3E50" points="86.25,649.3381,84.024,639.7441,83.2392,645.3463,77.637,644.5614,86.25,649.3381" style="stroke:#2C3E50;stroke-width:1.4;"/><text fill="#5D6D7E" font-family="'Helvetica Neue'" font-size="10" lengthAdjust="spacing" textLength="106.1182" x="168.31" y="545.8604">DOCKING_COMPLETE</text><text fill="#5D6D7E" font-family="'Helvetica Neue'" font-size="10" lengthAdjust="spacing" textLength="101.8359" x="170.4511" y="557.501">&amp;&amp; !enable_delivery</text></g><!--link DOCK to DOCK--><g class="link" data-entity-1="ent0004" data-entity-2="ent0004" data-link-type="dependency" data-source-line="21" id="lnk8"><path d="M648.14,392.0781 C671.39,389.7481 692.81,393.9181 692.81,404.5781 C692.81,415.2381 677.3601,420.0064 654.1101,417.6764" fill="none" id="DOCK-to-DOCK" style="stroke:#2C3E50;stroke-width:1.4;"/><polygon fill="#2C3E50" points="648.14,417.0781,656.6963,421.9556,653.1151,417.5767,657.494,413.9955,648.14,417.0781" style="stroke:#2C3E50;stroke-width:1.4;"/><text fill="#5D6D7E" font-family="'Helvetica Neue'" font-size="10" lengthAdjust="spacing" textLength="76.6504" x="717.811" y="396.8604">docking failed /</text><text fill="#5D6D7E" font-family="'Helvetica Neue'" font-size="10" lengthAdjust="spacing" textLength="72.0703" x="720.101" y="408.501">blacklist 30 s /</text><text fill="#5D6D7E" font-family="'Helvetica Neue'" font-size="10" lengthAdjust="spacing" textLength="98.6523" x="706.81" y="420.1416">resume EXPLORING</text></g><!--link DEL to UND--><g class="link" data-entity-1="ent0005" data-entity-2="ent0006" data-link-type="dependency" data-source-line="23" id="lnk9"><path d="M310.21,568.1781 C298.1,574.0181 285.35,580.9381 274.31,588.5781 C252.59,603.5981 254.1,616.2381 231.31,629.5781 C208.02,643.2181 185.3073,651.0687 161.1973,657.1587" fill="none" id="DEL-to-UND" style="stroke:#2C3E50;stroke-width:1.4;"/><polygon fill="#2C3E50" points="155.38,658.6281,165.0855,660.3022,160.2277,657.4036,163.1263,652.5458,155.38,658.6281" style="stroke:#2C3E50;stroke-width:1.4;"/><text fill="#5D6D7E" font-family="'Helvetica Neue'" font-size="10" lengthAdjust="spacing" textLength="107.583" x="283.31" y="612.8604">DELIVERY_COMPLETE</text></g><!--link DEL to UND--><g class="link" data-entity-1="ent0005" data-entity-2="ent0006" data-link-type="dependency" data-source-line="24" id="lnk10"><path d="M305.52,553.1981 C233.24,559.5881 107.89,572.7981 94.31,588.5781 C79.97,605.2381 84.6385,626.0239 92.2085,643.8839" fill="none" id="DEL-to-UND-1" style="stroke:#2C3E50;stroke-width:1.4;"/><polygon fill="#2C3E50" points="94.55,649.4081,94.7206,639.5607,92.5988,644.8046,87.3549,642.6827,94.55,649.4081" style="stroke:#2C3E50;stroke-width:1.4;"/><text fill="#5D6D7E" font-family="'Helvetica Neue'" font-size="10" lengthAdjust="spacing" textLength="108.418" x="103.31" y="606.8604">delivery_timeout 90 s</text><text fill="#5D6D7E" font-family="'Helvetica Neue'" font-size="10" lengthAdjust="spacing" textLength="85.5029" x="114.7675" y="618.501">&#8212; force abandon</text></g><!--link UND to EXP--><g class="link" data-entity-1="ent0006" data-entity-2="ent0003" data-link-type="dependency" data-source-line="26" id="lnk11"><path d="M74.79,649.2081 C68.6,643.6481 62.87,637.0481 59.31,629.5781 C30.63,569.4081 40.5,474.3881 55.31,455.5781 C155.84,327.8681 683.8409,286.4895 848.7609,276.5395" fill="none" id="UND-to-EXP" style="stroke:#2C3E50;stroke-width:1.4;"/><polygon fill="#2C3E50" points="854.75,276.1781,845.5254,272.7274,849.7591,276.4792,846.0072,280.7129,854.75,276.1781" style="stroke:#2C3E50;stroke-width:1.4;"/><text fill="#5D6D7E" font-family="'Helvetica Neue'" font-size="10" lengthAdjust="spacing" textLength="120.918" x="64.31" y="473.8604">UNDOCKING_COMPLETE</text><text fill="#5D6D7E" font-family="'Helvetica Neue'" font-size="10" lengthAdjust="spacing" textLength="92.9932" x="78.2724" y="485.501">&amp;&amp; targets remain</text><text fill="#5D6D7E" font-family="'Helvetica Neue'" font-size="10" lengthAdjust="spacing" textLength="99.9951" x="74.7714" y="497.1416">&amp;&amp; map incomplete</text></g><!--link UND to SRCH--><g class="link" data-entity-1="ent0006" data-entity-2="ent0007" data-link-type="dependency" data-source-line="27" id="lnk12"><path d="M155.53,671.2681 C243.64,673.2281 419.6,680.7481 473.31,709.5781 C499.73,723.7581 492.96,742.7581 516.31,761.5781 C528.75,771.6081 538.425,777.6618 552.465,784.6918" fill="none" id="UND-to-SRCH" style="stroke:#2C3E50;stroke-width:1.4;"/><polygon fill="#2C3E50" points="557.83,787.3781,551.5733,779.7719,553.3591,785.1395,547.9916,786.9253,557.83,787.3781" style="stroke:#2C3E50;stroke-width:1.4;"/><text fill="#5D6D7E" font-family="'Helvetica Neue'" font-size="10" lengthAdjust="spacing" textLength="120.918" x="525.31" y="727.8604">UNDOCKING_COMPLETE</text><text fill="#5D6D7E" font-family="'Helvetica Neue'" font-size="10" lengthAdjust="spacing" textLength="92.9932" x="539.2724" y="739.501">&amp;&amp; targets remain</text><text fill="#5D6D7E" font-family="'Helvetica Neue'" font-size="10" lengthAdjust="spacing" textLength="87.6074" x="541.9653" y="751.1416">&amp;&amp; search_active</text></g><!--link UND to DONE--><g class="link" data-entity-1="ent0006" data-entity-2="ent0008" data-link-type="dependency" data-source-line="28" id="lnk13"><path d="M85.21,689.7281 C55.8,721.6081 6,786.6881 38.31,833.5781 C81.91,896.8681 164.3726,919.4354 228.5926,927.9954" fill="none" id="UND-to-DONE" style="stroke:#2C3E50;stroke-width:1.4;"/><polygon fill="#2C3E50" points="234.54,928.7881,226.1474,923.6341,229.5838,928.1275,225.0904,931.5639,234.54,928.7881" style="stroke:#2C3E50;stroke-width:1.4;"/><text fill="#5D6D7E" font-family="'Helvetica Neue'" font-size="10" lengthAdjust="spacing" textLength="120.918" x="47.31" y="799.8604">UNDOCKING_COMPLETE</text><text fill="#5D6D7E" font-family="'Helvetica Neue'" font-size="10" lengthAdjust="spacing" textLength="108.8623" x="53.3378" y="811.501">&amp;&amp; all targets docked</text><text fill="#5D6D7E" font-family="'Helvetica Neue'" font-size="10" lengthAdjust="spacing" textLength="90.8789" x="62.3295" y="823.1416">&amp;&amp; map complete</text></g><!--link EXP to SRCH--><g class="link" data-entity-1="ent0003" data-entity-2="ent0007" data-link-type="dependency" data-source-line="30" id="lnk14"><path d="M951.91,282.3781 C1012.25,296.4181 1107.31,330.1881 1107.31,403.5781 C1107.31,403.5781 1107.31,403.5781 1107.31,670.5781 C1107.31,739.6581 1045.66,736.4681 981.31,761.5781 C922.43,784.5481 746.5484,797.9349 658.3084,803.4349" fill="none" id="EXP-to-SRCH" style="stroke:#2C3E50;stroke-width:1.4;"/><polygon fill="#2C3E50" points="652.32,803.8081,661.5514,807.2405,657.3103,803.4971,661.0537,799.256,652.32,803.8081" style="stroke:#2C3E50;stroke-width:1.4;"/><text fill="#5D6D7E" font-family="'Helvetica Neue'" font-size="10" lengthAdjust="spacing" textLength="133.1787" x="1116.31" y="545.8604">initial_exploration_timeout</text><text fill="#5D6D7E" font-family="'Helvetica Neue'" font-size="10" lengthAdjust="spacing" textLength="77.5732" x="1144.1127" y="557.501">(480 s) elapsed</text></g><!--link SRCH to EXP--><g class="link" data-entity-1="ent0007" data-entity-2="ent0003" data-link-type="dependency" data-source-line="33" id="lnk16"><path d="M652.34,802.4381 C718.9,793.9181 835.79,767.9981 890.31,689.5781 C935.47,624.6081 913.4892,372.3271 906.0092,299.0371" fill="none" id="SRCH-to-EXP" style="stroke:#2C3E50;stroke-width:1.4;"/><polygon fill="#2C3E50" points="905.4,293.0681,902.3345,302.4277,905.9077,298.0423,910.2931,301.6155,905.4,293.0681" style="stroke:#2C3E50;stroke-width:1.4;"/><text fill="#5D6D7E" font-family="'Helvetica Neue'" font-size="10" lengthAdjust="spacing" textLength="81.0889" x="934.8393" y="545.8604">SEARCH_FAILED</text><text fill="#5D6D7E" font-family="'Helvetica Neue'" font-size="10" lengthAdjust="spacing" textLength="96.1475" x="927.31" y="557.501">&amp;&amp; missing targets</text></g><!--link SRCH to DOCK--><g class="link" data-entity-1="ent0007" data-entity-2="ent0004" data-link-type="dependency" data-source-line="32" id="lnk15"><path d="M638.17,787.5781 C647.4,780.6881 656.21,771.9981 661.31,761.5781 C671.47,740.8281 668.7,731.4781 661.31,709.5781 C647,667.2181 614.62,671.9381 600.31,629.5781 C575.91,557.3381 591.0515,470.2569 600.1115,430.6669" fill="none" id="SRCH-to-DOCK" style="stroke:#2C3E50;stroke-width:1.4;"/><polygon fill="#2C3E50" points="601.45,424.8181,595.5431,432.699,600.3346,429.6921,603.3415,434.4836,601.45,424.8181" style="stroke:#2C3E50;stroke-width:1.4;"/><text fill="#5D6D7E" font-family="'Helvetica Neue'" font-size="10" lengthAdjust="spacing" textLength="87.251" x="609.31" y="606.8604">fresh TF acquired</text><text fill="#5D6D7E" font-family="'Helvetica Neue'" font-size="10" lengthAdjust="spacing" textLength="67.4805" x="619.1953" y="618.501">during sweep</text></g><!--link SRCH to DONE--><g class="link" data-entity-1="ent0007" data-entity-2="ent0008" data-link-type="dependency" data-source-line="34" id="lnk17"><path d="M554.12,816.8281 C518.67,823.8481 470.24,835.6881 430.31,853.5781 C394.21,869.7581 361.6969,892.7555 338.4669,910.8155" fill="none" id="SRCH-to-DONE" style="stroke:#2C3E50;stroke-width:1.4;"/><polygon fill="#2C3E50" points="333.73,914.4981,343.2904,912.1321,337.6774,911.4292,338.3802,905.8162,333.73,914.4981" style="stroke:#2C3E50;stroke-width:1.4;"/><text fill="#5D6D7E" font-family="'Helvetica Neue'" font-size="10" lengthAdjust="spacing" textLength="81.0889" x="441.1581" y="871.8604">SEARCH_FAILED</text><text fill="#5D6D7E" font-family="'Helvetica Neue'" font-size="10" lengthAdjust="spacing" textLength="84.7852" x="439.31" y="883.501">&amp;&amp; all processed</text></g><!--link EXP to TIME--><g class="link" data-entity-1="ent0003" data-entity-2="ent0009" data-link-type="dependency" data-source-line="36" id="lnk18"><path d="M951.83,278.1281 C1062.94,289.8981 1326.31,325.9781 1326.31,403.5781 C1326.31,403.5781 1326.31,403.5781 1326.31,808.5781 C1326.31,881.1481 811.7602,917.635 610.4602,929.165" fill="none" id="EXP-to-TIME" style="stroke:#2C3E50;stroke-width:1.4;"/><polygon fill="#2C3E50" points="604.47,929.5081,613.684,932.9869,609.4618,929.2222,613.2265,925,604.47,929.5081" style="stroke:#2C3E50;stroke-width:1.4;"/><text fill="#5D6D7E" font-family="'Helvetica Neue'" font-size="10" lengthAdjust="spacing" textLength="167.2266" x="1335.31" y="612.8604">master_mission_timeout (1200 s)</text></g><!--link DOCK to TIME--><g class="link" data-entity-1="ent0004" data-entity-2="ent0009" data-link-type="dependency" data-source-line="37" id="lnk19"><path d="M643.36,424.5781 C682.71,447.7181 739.31,490.7781 739.31,547.0781 C739.31,547.0781 739.31,547.0781 739.31,808.5781 C739.31,848.6381 741.98,867.6681 712.31,894.5781 C696.3,909.0981 653.91,918.1219 610.53,924.3019" fill="none" id="DOCK-to-TIME" style="stroke:#2C3E50;stroke-width:1.4;"/><polygon fill="#2C3E50" points="604.59,925.1481,614.0642,927.8388,609.54,924.4429,612.9359,919.9188,604.59,925.1481" style="stroke:#2C3E50;stroke-width:1.4;"/><text fill="#5D6D7E" font-family="'Helvetica Neue'" font-size="10" lengthAdjust="spacing" textLength="122.4072" x="748.31" y="673.3604">master_mission_timeout</text></g><!--link DEL to TIME--><g class="link" data-entity-1="ent0005" data-entity-2="ent0009" data-link-type="dependency" data-source-line="38" id="lnk20"><path d="M389.24,568.1181 C396.12,573.7681 402.45,580.6181 406.31,588.5781 C414.25,604.9781 413.49,612.8281 406.31,629.5781 C386,676.9681 342.62,662.1881 322.31,709.5781 C313.2,730.8181 307.98,743.4381 322.31,761.5781 C346.1,791.6981 373.96,760.9281 406.31,781.5781 C459.73,815.6781 496.7293,876.6672 514.0093,909.2572" fill="none" id="DEL-to-TIME" style="stroke:#2C3E50;stroke-width:1.4;"/><polygon fill="#2C3E50" points="516.82,914.5581,516.1379,904.7329,514.4778,910.1407,509.07,908.4805,516.82,914.5581" style="stroke:#2C3E50;stroke-width:1.4;"/><text fill="#5D6D7E" font-family="'Helvetica Neue'" font-size="10" lengthAdjust="spacing" textLength="122.4072" x="331.31" y="739.3604">master_mission_timeout</text></g><!--link UND to TIME--><g class="link" data-entity-1="ent0006" data-entity-2="ent0009" data-link-type="dependency" data-source-line="39" id="lnk21"><path d="M118.21,689.5781 C152.27,734.4581 244.97,846.8081 352.31,894.5781 C382.29,907.9181 411.3792,915.7587 442.0892,921.6987" fill="none" id="UND-to-TIME" style="stroke:#2C3E50;stroke-width:1.4;"/><polygon fill="#2C3E50" points="447.98,922.8381,439.9034,917.2018,443.071,921.8886,438.3842,925.0562,447.98,922.8381" style="stroke:#2C3E50;stroke-width:1.4;"/><text fill="#5D6D7E" font-family="'Helvetica Neue'" font-size="10" lengthAdjust="spacing" textLength="122.4072" x="264.31" y="811.3604">master_mission_timeout</text></g><!--link SRCH to TIME--><g class="link" data-entity-1="ent0007" data-entity-2="ent0009" data-link-type="dependency" data-source-line="40" id="lnk22"><path d="M585.17,827.9081 C578.47,835.5681 571.11,844.6681 565.31,853.5781 C552.49,873.2581 543.4911,892.248 536.3911,908.918" fill="none" id="SRCH-to-TIME" style="stroke:#2C3E50;stroke-width:1.4;"/><polygon fill="#2C3E50" points="534.04,914.4381,541.2468,907.7253,535.9993,909.838,533.8866,904.5905,534.04,914.4381" style="stroke:#2C3E50;stroke-width:1.4;"/><text fill="#5D6D7E" font-family="'Helvetica Neue'" font-size="10" lengthAdjust="spacing" textLength="122.4072" x="574.31" y="877.8604">master_mission_timeout</text></g><!--link DONE to *end*--><g class="link" data-entity-1="ent0008" data-entity-2="ent0023" data-link-type="dependency" data-source-line="42" id="lnk24"><path d="M337.36,954.7081 C358.43,969.5981 381.4807,985.9045 395.5407,995.8445" fill="none" id="DONE-to-*end*" style="stroke:#2C3E50;stroke-width:1.4;"/><polygon fill="#2C3E50" points="400.44,999.3081,395.4002,990.8464,396.3573,996.4217,390.782,997.3788,400.44,999.3081" style="stroke:#2C3E50;stroke-width:1.4;"/></g><!--link TIME to *end*--><g class="link" data-entity-1="ent0009" data-entity-2="ent0023" data-link-type="dependency" data-source-line="43" id="lnk25"><path d="M494.34,954.7081 C468.76,970.0081 439.7495,987.3687 423.6295,997.0087" fill="none" id="TIME-to-*end*" style="stroke:#2C3E50;stroke-width:1.4;"/><polygon fill="#2C3E50" points="418.48,1000.0881,428.2572,998.9019,422.7712,997.5219,424.1512,992.036,418.48,1000.0881" style="stroke:#2C3E50;stroke-width:1.4;"/></g><?plantuml-src jLNjRjCm5FsVfxWhqhGXjdwC3QYYI5ERGKG_fhL3842HcznsrfoanEvW82GUWdVXFu_2as0xjVkHRgC_o8z8jiyvr_VuNdk7fX6RnGWX5xSC3-aiOOuZg608xiZhKivfba8ho_AOfaIemTcW2tz-_8IaM0mZivZbuSsHMnrv7rANqw_Oh3SyDyfObZSV7RTFsizyhzwerO13GhZ077x_WgVFrHY_J2KAGT04ivbG2o_KV8oCtc1-QnRSgfRptAhIzno72o8GAa4l65PWzICSrBI1-6_FE_sBeFUoiWAHqmRHxhTUhwvhX9e6S5sTfkTPjDy9tlYhWWhjTq2XpSuNXCjUEO0ao6dO83_mJozQhqheWPnKQ8uaZwuMy6um60JzNjZgTyyx_j2lcBttV0MNPYVoX5YPC0owVZliNohx944D5M5CPan8jFF-yKU0WmEly5Bzz4ZQ1asOdtBDawAv28jJr4Mojs-FI44rHnkvH1hdoAzWU0OY0q4cHoTNzNhpM-r9u_kSQykevksHYIn8g1qU0rz8QqKjhLnVafuxRUqe2-xk0gPan30q9sLKhQW-cMr5TnvINNSXpg9hcavWJ2Z36AfbrH4ZqJMZNC2HweaD26daB46m9RumIFcoCPUYUj-j9tCtmoGKcXvL3LhUYheOnbaU8P0HIUCijNlHWgPsbfLjOzplh2on2GeEEIQ4fXiX2Pc2lD2oPCfGe8bi0-lc-I-1YtOCIIIaHwMukWktZqiOix5LbM1yPzBhAI-QRZrdcb912LlkrT1UhgMkqxVpFY0ZKsx3EuuMlRUbIVHfHlDDEuvdkIft_XbnQWIjtdff5BTWU7OQTFpsvkpL8oJrvaQL5DUzVrXHsJxDimZvSihMK7r3BWaMJrbe7aFJ7Nl5IxTVwlz_uvVQSJkQBRtjQDQrxMYEDbdnv6lXQAuP_0K0?></g></svg>