<?plantuml 1.2026.1?><svg xmlns="http://www.w3.org/2000/svg" xmlns:xlink="http://www.w3.org/1999/xlink" contentStyleType="text/css" data-diagram-type="STATE" height="882px" preserveAspectRatio="none" style="width:1110px;height:882px;background:#FFFFFF;" version="1.1" viewBox="0 0 1110 882" width="1110px" zoomAndPan="magnify"><title>&lt;b&gt;TF Tree&lt;/b&gt;
&lt;size:12&gt;&lt;color:#5D6D7E&gt;map &#8594; odom &#8594; base_link chain + per-station dock targets&lt;/color&gt;&lt;/size&gt;</title><defs/><g><g class="title" data-source-line="3"><text fill="#1B4F72" font-family="'Helvetica Neue'" font-size="22" font-weight="bold" lengthAdjust="spacing" textLength="93.3926" x="501.4395" y="38.4209">TF Tree</text><text fill="#5D6D7E" font-family="'Helvetica Neue'" font-size="12" font-weight="bold" lengthAdjust="spacing" textLength="390.1934" x="353.0391" y="54.748">map &#8594; odom &#8594; base_link chain + per-station dock targets</text></g><rect fill="#EAF4FB" height="40" rx="7" ry="7" style="stroke:#2E86C1;stroke-width:1.6;" width="52.7588" x="373" y="83.5781"/><text fill="#5D6D7E" font-family="'Helvetica Neue'" font-size="11" font-weight="bold" lengthAdjust="spacing" textLength="26.7588" x="386" y="107.3862">map</text><rect fill="#EAF4FB" height="40" rx="7" ry="7" style="stroke:#2E86C1;stroke-width:1.6;" width="60.4502" x="369.5" y="186.5781"/><text fill="#5D6D7E" font-family="'Helvetica Neue'" font-size="11" font-weight="bold" lengthAdjust="spacing" textLength="34.4502" x="382.5" y="210.3862">odom</text><rect fill="#EAF4FB" height="40" rx="7" ry="7" style="stroke:#2E86C1;stroke-width:1.6;" width="116.1216" x="341.5" y="289.5781"/><text fill="#5D6D7E" font-family="'Helvetica Neue'" font-size="11" font-weight="bold" lengthAdjust="spacing" textLength="90.1216" x="354.5" y="313.3862">base_footprint</text><rect fill="#EAF4FB" height="40" rx="7" ry="7" style="stroke:#2E86C1;stroke-width:1.6;" width="83.4922" x="358" y="380.5781"/><text fill="#5D6D7E" font-family="'Helvetica Neue'" font-size="11" font-weight="bold" lengthAdjust="spacing" textLength="57.4922" x="371" y="404.3862">base_link</text><rect fill="#EAF4FB" height="50.4453" rx="7" ry="7" style="stroke:#2E86C1;stroke-width:1.6;" width="102.9629" x="7" y="483.5781"/><text fill="#5D6D7E" font-family="'Helvetica Neue'" font-size="11" font-weight="bold" lengthAdjust="spacing" textLength="63.1265" x="20" y="506.7886">base_scan</text><text fill="#5D6D7E" font-family="'Helvetica Neue'" font-size="10" font-weight="bold" lengthAdjust="spacing" textLength="76.9629" x="20" y="518.665">LDS-02 LiDAR</text><rect fill="#EAF4FB" height="40" rx="7" ry="7" style="stroke:#2E86C1;stroke-width:1.6;" width="127.4546" x="140" y="488.5781"/><text fill="#5D6D7E" font-family="'Helvetica Neue'" font-size="11" font-weight="bold" lengthAdjust="spacing" textLength="101.4546" x="153" y="512.3862">caster_back_link</text><rect fill="#EAF4FB" height="40" rx="7" ry="7" style="stroke:#2E86C1;stroke-width:1.6;" width="77.251" x="297" y="488.5781"/><text fill="#5D6D7E" font-family="'Helvetica Neue'" font-size="11" font-weight="bold" lengthAdjust="spacing" textLength="51.251" x="310" y="512.3862">imu_link</text><rect fill="#EAF4FB" height="40" rx="7" ry="7" style="stroke:#2E86C1;stroke-width:1.6;" width="117.647" x="404.5" y="488.5781"/><text fill="#5D6D7E" font-family="'Helvetica Neue'" font-size="11" font-weight="bold" lengthAdjust="spacing" textLength="91.647" x="417.5" y="512.3862">wheel_left_link</text><rect fill="#EAF4FB" height="40" rx="7" ry="7" style="stroke:#2E86C1;stroke-width:1.6;" width="126.5308" x="553" y="488.5781"/><text fill="#5D6D7E" font-family="'Helvetica Neue'" font-size="11" font-weight="bold" lengthAdjust="spacing" textLength="100.5308" x="566" y="512.3862">wheel_right_link</text><rect fill="#EAF4FB" height="40" rx="7" ry="7" style="stroke:#2E86C1;stroke-width:1.6;" width="99.9009" x="710.5" y="488.5781"/><text fill="#5D6D7E" font-family="'Helvetica Neue'" font-size="11" font-weight="bold" lengthAdjust="spacing" textLength="73.9009" x="723.5" y="512.3862">camera_link</text><rect fill="#EAF4FB" height="50.4453" rx="7" ry="7" style="stroke:#2E86C1;stroke-width:1.6;" width="101.0537" x="710" y="596.5781"/><text fill="#5D6D7E" font-family="'Helvetica Neue'" font-size="11" font-weight="bold" lengthAdjust="spacing" textLength="45.7134" x="723" y="619.7886">camera</text><text fill="#5D6D7E" font-family="'Helvetica Neue'" font-size="10" font-weight="bold" lengthAdjust="spacing" textLength="75.0537" x="723" y="631.665">optical frame</text><rect fill="#EAF4FB" height="40" rx="7" ry="7" style="stroke:#2E86C1;stroke-width:1.6;" width="97.0542" x="525" y="721.5781"/><text fill="#5D6D7E" font-family="'Helvetica Neue'" font-size="11" font-weight="bold" lengthAdjust="spacing" textLength="71.0542" x="538" y="745.3862">tag36h11:0</text><rect fill="#EAF4FB" height="40" rx="7" ry="7" style="stroke:#2E86C1;stroke-width:1.6;" width="97.0542" x="901" y="721.5781"/><text fill="#5D6D7E" font-family="'Helvetica Neue'" font-size="11" font-weight="bold" lengthAdjust="spacing" textLength="71.0542" x="914" y="745.3862">tag36h11:2</text><rect fill="#E8DAEF" height="40" rx="7" ry="7" style="stroke:#8E44AD;stroke-width:1.6;" width="148.1978" x="499.5" y="836.5781"/><text fill="#4A235A" font-family="'Helvetica Neue'" font-size="11" font-weight="bold" lengthAdjust="spacing" textLength="122.1978" x="512.5" y="860.3862">nav2_dock_target_0</text><rect fill="#E8DAEF" height="40" rx="7" ry="7" style="stroke:#8E44AD;stroke-width:1.6;" width="148.1978" x="875.5" y="836.5781"/><text fill="#4A235A" font-family="'Helvetica Neue'" font-size="11" font-weight="bold" lengthAdjust="spacing" textLength="122.1978" x="888.5" y="860.3862">nav2_dock_target_2</text><g class="entity" data-qualified-name="GMN2" data-source-line="45" id="ent0003"><path d="M652,716.5781 L652,737.5781 L622.34,741.5781 L652,745.5781 L652,766.9922 A7,7 0 0 0 659,773.9922 L864.4453,773.9922 A7,7 0 0 0 871.4453,766.9922 L871.4453,719.5781 L861.4453,709.5781 L659,709.5781 A7,7 0 0 0 652,716.5781" fill="#FDEBD0" style="stroke:#D68910;stroke-width:1.2;"/><path d="M861.4453,709.5781 L861.4453,716.0781 A3.5,3.5 0 0 0 864.9453,719.5781 L871.4453,719.5781 L861.4453,709.5781" fill="#FDEBD0" style="stroke:#D68910;stroke-width:1.2;"/><text fill="#7E5109" font-family="'Helvetica Neue'" font-size="11" font-weight="bold" lengthAdjust="spacing" textLength="71.0542" x="666" y="732.7886">tag36h11:3</text><text fill="#7E5109" font-family="'Helvetica Neue'" font-size="11" lengthAdjust="spacing" textLength="85.7065" x="740.5508" y="732.7886">is inspected via</text><text fill="#7E5109" font-family="'Helvetica Neue'" font-size="11" font-style="italic" lengthAdjust="spacing" textLength="61.3862" x="666" y="745.5933">/detections</text><text fill="#7E5109" font-family="'Helvetica Neue'" font-size="11" lengthAdjust="spacing" textLength="117.5625" x="730.8828" y="745.5933">only &#8212; not broadcast</text><text fill="#7E5109" font-family="'Helvetica Neue'" font-size="11" lengthAdjust="spacing" textLength="78.8638" x="666" y="758.3979">as a TF frame.</text></g><!--link map to odom--><g class="link" data-entity-1="ent0002" data-entity-2="ent0003" data-link-type="dependency" data-source-line="25" id="lnk2"><path d="M399.5,124.0481 C399.5,142.0481 399.5,162.6381 399.5,180.5081" fill="none" id="map-to-odom" style="stroke:#2C3E50;stroke-width:1.4;"/><polygon fill="#2C3E50" points="399.5,186.5081,403.5,177.5081,399.5,181.5081,395.5,177.5081,399.5,186.5081" style="stroke:#2C3E50;stroke-width:1.4;"/><text fill="#5D6D7E" font-family="'Helvetica Neue'" font-size="10" lengthAdjust="spacing" textLength="92.5146" x="408.5" y="152.8604">dynamic &#183; ~9.6 Hz</text><text fill="#5D6D7E" font-family="'Helvetica Neue'" font-size="10" lengthAdjust="spacing" textLength="74.5996" x="417.4575" y="164.501">(Cartographer)</text></g><!--link odom to base_fp--><g class="link" data-entity-1="ent0003" data-entity-2="ent0004" data-link-type="dependency" data-source-line="26" id="lnk3"><path d="M399.5,227.0481 C399.5,245.0481 399.5,265.6381 399.5,283.5081" fill="none" id="odom-to-base_fp" style="stroke:#2C3E50;stroke-width:1.4;"/><polygon fill="#2C3E50" points="399.5,289.5081,403.5,280.5081,399.5,284.5081,395.5,280.5081,399.5,289.5081" style="stroke:#2C3E50;stroke-width:1.4;"/><text fill="#5D6D7E" font-family="'Helvetica Neue'" font-size="10" lengthAdjust="spacing" textLength="89.3359" x="408.5" y="255.8604">dynamic &#183; ~20 Hz</text><text fill="#5D6D7E" font-family="'Helvetica Neue'" font-size="10" lengthAdjust="spacing" textLength="36.1279" x="435.104" y="267.501">(odom)</text></g><!--link base_fp to base--><g class="link" data-entity-1="ent0004" data-entity-2="ent0005" data-link-type="dependency" data-source-line="27" id="lnk4"><path d="M399.5,329.8881 C399.5,344.8181 399.5,359.3881 399.5,374.3081" fill="none" id="base_fp-to-base" style="stroke:#2C3E50;stroke-width:1.4;"/><polygon fill="#2C3E50" points="399.5,380.3081,403.5,371.3081,399.5,375.3081,395.5,371.3081,399.5,380.3081" style="stroke:#2C3E50;stroke-width:1.4;"/><text fill="#5D6D7E" font-family="'Helvetica Neue'" font-size="10" lengthAdjust="spacing" textLength="27.4561" x="408.5" y="358.8604">static</text></g><!--link base to scan--><g class="link" data-entity-1="ent0005" data-entity-2="ent0006" data-link-type="dependency" data-source-line="29" id="lnk5"><path d="M357.63,403.2581 C315.45,405.9781 248.99,413.0681 194.5,431.5781 C157.88,444.0181 124.7633,463.0123 98.2233,480.2323" fill="none" id="base-to-scan" style="stroke:#2C3E50;stroke-width:1.4;"/><polygon fill="#2C3E50" points="93.19,483.4981,102.9172,481.955,97.3845,480.7766,98.5628,475.2439,93.19,483.4981" style="stroke:#2C3E50;stroke-width:1.4;"/><text fill="#5D6D7E" font-family="'Helvetica Neue'" font-size="10" lengthAdjust="spacing" textLength="27.4561" x="203.5" y="455.8604">static</text></g><!--link base to caster--><g class="link" data-entity-1="ent0005" data-entity-2="ent0007" data-link-type="dependency" data-source-line="30" id="lnk6"><path d="M357.61,411.9581 C341.2,416.8181 322.5,423.3681 306.5,431.5781 C276.05,447.1981 249.536,467.6474 229.596,484.5574" fill="none" id="base-to-caster" style="stroke:#2C3E50;stroke-width:1.4;"/><polygon fill="#2C3E50" points="225.02,488.4381,234.4712,485.6678,228.8334,485.2042,229.2969,479.5664,225.02,488.4381" style="stroke:#2C3E50;stroke-width:1.4;"/><text fill="#5D6D7E" font-family="'Helvetica Neue'" font-size="10" lengthAdjust="spacing" textLength="27.4561" x="315.5" y="455.8604">static</text></g><!--link base to imu--><g class="link" data-entity-1="ent0005" data-entity-2="ent0008" data-link-type="dependency" data-source-line="31" id="lnk7"><path d="M387.76,421.0181 C376.21,440.1481 361.7932,464.0429 350.2632,483.1229" fill="none" id="base-to-imu" style="stroke:#2C3E50;stroke-width:1.4;"/><polygon fill="#2C3E50" points="347.16,488.2581,355.2382,482.6241,349.746,483.9788,348.3913,478.4865,347.16,488.2581" style="stroke:#2C3E50;stroke-width:1.4;"/><text fill="#5D6D7E" font-family="'Helvetica Neue'" font-size="10" lengthAdjust="spacing" textLength="27.4561" x="390.5" y="455.8604">static</text></g><!--link base to wl--><g class="link" data-entity-1="ent0005" data-entity-2="ent0009" data-link-type="dependency" data-source-line="32" id="lnk8"><path d="M420.61,420.6681 C423.81,424.1181 426.91,427.8181 429.5,431.5781 C441.8,449.4381 449.3163,466.8169 455.1163,482.8269" fill="none" id="base-to-wl" style="stroke:#2C3E50;stroke-width:1.4;"/><polygon fill="#2C3E50" points="457.16,488.4681,457.8553,478.6438,455.4569,483.7671,450.3337,481.3687,457.16,488.4681" style="stroke:#2C3E50;stroke-width:1.4;"/><text fill="#5D6D7E" font-family="'Helvetica Neue'" font-size="10" lengthAdjust="spacing" textLength="89.3359" x="460.5" y="455.8604">dynamic &#183; ~13 Hz</text></g><!--link base to wr--><g class="link" data-entity-1="ent0005" data-entity-2="ent0010" data-link-type="dependency" data-source-line="33" id="lnk9"><path d="M441.01,405.3681 C483.31,409.8681 545.46,418.4681 565.5,431.5781 C586.38,445.2381 598.3425,465.268 606.3925,482.938" fill="none" id="base-to-wr" style="stroke:#2C3E50;stroke-width:1.4;"/><polygon fill="#2C3E50" points="608.88,488.3981,608.7888,478.5497,606.8071,483.8481,601.5087,481.8663,608.88,488.3981" style="stroke:#2C3E50;stroke-width:1.4;"/><text fill="#5D6D7E" font-family="'Helvetica Neue'" font-size="10" lengthAdjust="spacing" textLength="89.3359" x="610.5" y="455.8604">dynamic &#183; ~13 Hz</text></g><!--link base to camlink--><g class="link" data-entity-1="ent0005" data-entity-2="ent0011" data-link-type="dependency" data-source-line="34" id="lnk10"><path d="M441.09,400.9481 C516.22,400.5481 670.95,403.3081 715.5,431.5781 C735.96,444.5581 746.2662,464.8233 752.7262,482.7533" fill="none" id="base-to-camlink" style="stroke:#2C3E50;stroke-width:1.4;"/><polygon fill="#2C3E50" points="754.76,488.3981,755.4726,478.5751,753.0652,483.6941,747.9461,481.2868,754.76,488.3981" style="stroke:#2C3E50;stroke-width:1.4;"/><text fill="#5D6D7E" font-family="'Helvetica Neue'" font-size="10" lengthAdjust="spacing" textLength="27.4561" x="801.5186" y="449.8604">static</text><text fill="#5D6D7E" font-family="'Helvetica Neue'" font-size="10" lengthAdjust="spacing" textLength="115.4932" x="757.5" y="461.501">(tf2 static broadcaster)</text></g><!--link camlink to cam--><g class="link" data-entity-1="ent0011" data-entity-2="ent0012" data-link-type="dependency" data-source-line="36" id="lnk11"><path d="M760.5,528.6581 C760.5,547.3781 760.5,569.9981 760.5,590.3181" fill="none" id="camlink-to-cam" style="stroke:#2C3E50;stroke-width:1.4;"/><polygon fill="#2C3E50" points="760.5,596.3181,764.5,587.3181,760.5,591.3181,756.5,587.3181,760.5,596.3181" style="stroke:#2C3E50;stroke-width:1.4;"/><text fill="#5D6D7E" font-family="'Helvetica Neue'" font-size="10" lengthAdjust="spacing" textLength="27.4561" x="797.7642" y="562.8604">static</text><text fill="#5D6D7E" font-family="'Helvetica Neue'" font-size="10" lengthAdjust="spacing" textLength="83.9844" x="769.5" y="574.501">(optical rotation)</text></g><!--link cam to tag0--><g class="link" data-entity-1="ent0012" data-entity-2="ent0013" data-link-type="dependency" data-source-line="38" id="lnk12"><path d="M722.21,646.7381 C687.16,668.8581 641.0647,697.9469 608.8047,718.2969" fill="none" id="cam-to-tag0" style="stroke:#2C3E50;stroke-width:1.4;"/><polygon fill="#2C3E50" points="603.73,721.4981,613.4762,720.0795,607.9589,718.8305,609.2079,713.3132,603.73,721.4981" style="stroke:#2C3E50;stroke-width:1.4;"/><text fill="#5D6D7E" font-family="'Helvetica Neue'" font-size="10" lengthAdjust="spacing" textLength="80.957" x="709.5" y="675.8604">dynamic &#183; 10 Hz</text><text fill="#5D6D7E" font-family="'Helvetica Neue'" font-size="10" lengthAdjust="spacing" textLength="66.7822" x="716.5874" y="687.501">(apriltag_ros)</text></g><!--link cam to tag2--><g class="link" data-entity-1="ent0012" data-entity-2="ent0014" data-link-type="dependency" data-source-line="39" id="lnk13"><path d="M799.2,646.7381 C834.63,668.8581 881.2607,697.9702 913.8507,718.3202" fill="none" id="cam-to-tag2" style="stroke:#2C3E50;stroke-width:1.4;"/><polygon fill="#2C3E50" points="918.94,721.4981,913.4246,713.3384,914.6989,718.8499,909.1875,720.1242,918.94,721.4981" style="stroke:#2C3E50;stroke-width:1.4;"/><text fill="#5D6D7E" font-family="'Helvetica Neue'" font-size="10" lengthAdjust="spacing" textLength="80.957" x="885.5" y="675.8604">dynamic &#183; 10 Hz</text><text fill="#5D6D7E" font-family="'Helvetica Neue'" font-size="10" lengthAdjust="spacing" textLength="66.7822" x="892.5874" y="687.501">(apriltag_ros)</text></g><!--link tag0 to ndt0--><g class="link" data-entity-1="ent0013" data-entity-2="ent0015" data-link-type="dependency" data-source-line="41" id="lnk14"><path d="M573.5,761.7481 C573.5,782.5281 573.5,809.4981 573.5,830.3181" fill="none" id="tag0-to-ndt0" style="stroke:#2C3E50;stroke-width:1.4;"/><polygon fill="#2C3E50" points="573.5,836.3181,577.5,827.3181,573.5,831.3181,569.5,827.3181,573.5,836.3181" style="stroke:#2C3E50;stroke-width:1.4;"/><text fill="#5D6D7E" font-family="'Helvetica Neue'" font-size="10" lengthAdjust="spacing" textLength="27.4561" x="636.6577" y="802.8604">static</text><text fill="#5D6D7E" font-family="'Helvetica Neue'" font-size="10" lengthAdjust="spacing" textLength="135.7715" x="582.5" y="814.501">dock_target_broadcaster_0</text></g><!--link tag2 to ndt2--><g class="link" data-entity-1="ent0014" data-entity-2="ent0016" data-link-type="dependency" data-source-line="42" id="lnk15"><path d="M949.5,761.7481 C949.5,782.5281 949.5,809.4981 949.5,830.3181" fill="none" id="tag2-to-ndt2" style="stroke:#2C3E50;stroke-width:1.4;"/><polygon fill="#2C3E50" points="949.5,836.3181,953.5,827.3181,949.5,831.3181,945.5,827.3181,949.5,836.3181" style="stroke:#2C3E50;stroke-width:1.4;"/><text fill="#5D6D7E" font-family="'Helvetica Neue'" font-size="10" lengthAdjust="spacing" textLength="27.4561" x="1012.6577" y="802.8604">static</text><text fill="#5D6D7E" font-family="'Helvetica Neue'" font-size="10" lengthAdjust="spacing" textLength="135.7715" x="958.5" y="814.501">dock_target_broadcaster_2</text></g><?plantuml-src hPN1ZjCm48RlUOeXN42eszGLHLHH94H17FO4UqIAtCHjhJfsPBjRTG-84m-0U1VkFCe-2ROJfywoRIF0fyhv_yypKy_u2UK5svK4SgKFZ5pHNSMYI5FD2AJBxEOzt4X2ql4o-ynJHU_8V8Aoj11CoFdJbulPujMxhC8rt7_x3g8KbVknn8haZF8j51jCERo0ciYHqbXJmQ4KnHOqbckYLJfsg2mTMtOMHMfBUOqbha1YlbMa1eI2JIvAOZUdYP4Q7e7Od1v3Rs45PjD_jr753x_RJIzmqQw4qBMaNCUDeDciUngRKHn0x6RKKwW2ywvEINQz-3HA45pJnPkFROPnwxLARosmqaJcIrni-sSyieoraNiphNONJO7PoBrplo64vOoiz6M0SUvPtoZfUgE7nBkNnqGh8l6mS5sYbPNstK5vHQrfWHcipCqWONszspirNazdcybadiH3QcJaoHzMDDIAl9NZMvJRovutbpq_Sxgnyb8da9hM4hBCifCGT0c20aXaMzEjqIXh-jEiENGbB0ySLxI0Np_Xo-kh6NouQ-iObFdPMoorM4jSRuXyxZlLmnovxPPJP9Gy3hQC3kWP7V11g6vy5DsWS0ehjPrqLjefcyOPeZHT0iEOUmPmfgQJwJ7pm2J_mjHsmycOmiBg5OBc8oobm6MJULVgoBDQBWo2-dQJeXdaFPn3sSOvaTJan1N0PkWouykbK1qmuA7_mOjSO9Reccn0ic771HNC4uzqeRL4z2z4r0N9XMbuDrL1h9eX1FODxaRGr3x3GCqGvwecXIObt59iHJGRbqIRBVEtc3ULcbxdx03tNt-O5rCVxq3aXWG6ywoxeNaL4LvQ2Ob-0m00?></g></svg>