<?plantuml 1.2026.1?><svg xmlns="http://www.w3.org/2000/svg" xmlns:xlink="http://www.w3.org/1999/xlink" contentStyleType="text/css" data-diagram-type="ACTIVITY" height="2072px" preserveAspectRatio="none" style="width:1185px;height:2072px;background:#FFFFFF;" version="1.1" viewBox="0 0 1185 2072" width="1185px" zoomAndPan="magnify"><title>&lt;b&gt;&lt;size:36&gt;Group 7 AMR &#8212; Software Block Diagram&lt;/size&gt;&lt;/b&gt;
&lt;size:22&gt;Mission Flow Overview&lt;/size&gt;</title><defs/><g><g class="title" data-source-line="24"><text fill="#000000" font-family="Arial" font-size="36" font-weight="bold" lengthAdjust="spacing" textLength="815.9766" x="183.3944" y="66.416">Group 7 AMR &#8212; Software Block Diagram</text><text fill="#000000" font-family="Arial" font-size="22" font-weight="bold" lengthAdjust="spacing" textLength="283.207" x="449.7792" y="95.3271">Mission Flow Overview</text></g><ellipse cx="637.1248" cy="139.5156" fill="#FFFFFF" rx="10" ry="10" style="stroke:#000000;stroke-width:1;"/><path d="M816.655,179.1719 L816.655,209.8125 L796.655,213.8125 L816.655,217.8125 L816.655,248.4531 A0,0 0 0 0 816.655,248.4531 L1175.0808,248.4531 A0,0 0 0 0 1175.0808,248.4531 L1175.0808,189.1719 L1165.0808,179.1719 L816.655,179.1719 A0,0 0 0 0 816.655,179.1719" fill="#FDEBD0" style="stroke:#D68910;stroke-width:1;"/><path d="M1165.0808,179.1719 L1165.0808,189.1719 L1175.0808,189.1719 L1165.0808,179.1719" fill="#FDEBD0" style="stroke:#D68910;stroke-width:1;"/><text fill="#000000" font-family="Arial" font-size="20" lengthAdjust="spacing" textLength="301.4258" x="840.655" y="220.7363">Bringup, SLAM, Nav2, Camera</text><rect fill="#AED6F1" height="88.5938" rx="12.5" ry="12.5" style="stroke:#2E86C1;stroke-width:3;" width="319.0605" x="477.5945" y="169.5156"/><text fill="#000000" font-family="Arial" font-size="28" font-weight="bold" lengthAdjust="spacing" textLength="263.0605" x="505.5945" y="223.5059">Initialise System</text><path d="M99.2966,287.7656 L99.2966,357.0469 A0,0 0 0 0 99.2966,357.0469 L483.7966,357.0469 A0,0 0 0 0 483.7966,357.0469 L483.7966,326.4063 L503.7966,322.4063 L483.7966,318.4063 L483.7966,297.7656 L473.7966,287.7656 L99.2966,287.7656 A0,0 0 0 0 99.2966,287.7656" fill="#FDEBD0" style="stroke:#D68910;stroke-width:1;"/><path d="M473.7966,287.7656 L473.7966,297.7656 L483.7966,297.7656 L473.7966,287.7656" fill="#FDEBD0" style="stroke:#D68910;stroke-width:1;"/><text fill="#000000" font-family="Arial" font-size="20" lengthAdjust="spacing" textLength="327.5" x="123.2966" y="329.3301">LiDAR frontier-based exploration</text><rect fill="#AED6F1" height="88.5938" rx="12.5" ry="12.5" style="stroke:#2E86C1;stroke-width:3;" width="266.6563" x="503.7966" y="278.1094"/><text fill="#000000" font-family="Arial" font-size="28" font-weight="bold" lengthAdjust="spacing" textLength="210.6563" x="531.7966" y="332.0996">Explore Maze</text><path d="M825.4119,550.0625 L825.4119,592.3438 L805.4119,596.3438 L825.4119,600.3438 L825.4119,642.625 A0,0 0 0 0 825.4119,642.625 L1122.2556,642.625 A0,0 0 0 0 1122.2556,642.625 L1122.2556,560.0625 L1112.2556,550.0625 L825.4119,550.0625 A0,0 0 0 0 825.4119,550.0625" fill="#FDEBD0" style="stroke:#D68910;stroke-width:1;"/><path d="M1112.2556,550.0625 L1112.2556,560.0625 L1122.2556,560.0625 L1112.2556,550.0625" fill="#FDEBD0" style="stroke:#D68910;stroke-width:1;"/><text fill="#000000" font-family="Arial" font-size="20" lengthAdjust="spacing" textLength="239.8438" x="849.4119" y="591.627">AprilTag visual servoing</text><text fill="#000000" font-family="Arial" font-size="20" lengthAdjust="spacing" textLength="196.2891" x="849.4119" y="614.9082">(4-phase approach)</text><rect fill="#E8DAEF" height="88.5938" rx="12.5" ry="12.5" style="stroke:#2E86C1;stroke-width:3;" width="336.5742" x="468.8376" y="552.0469"/><text fill="#000000" font-family="Arial" font-size="28" font-weight="bold" lengthAdjust="spacing" textLength="280.5742" x="496.8376" y="606.0371">Dock with Station</text><polygon fill="#D5F5E3" points="526.8425,669.5898,747.407,669.5898,759.407,702.7227,747.407,735.8555,526.8425,735.8555,514.8425,702.7227,526.8425,669.5898" style="stroke:#27AE60;stroke-width:3;"/><text fill="#000000" font-family="Arial" font-size="26" font-weight="bold" lengthAdjust="spacing" textLength="184.5645" x="544.8425" y="711.7236">Docking OK?</text><text fill="#34495E" font-family="Arial" font-size="24" font-weight="bold" lengthAdjust="spacing" textLength="46.207" x="450.6355" y="679.0625">yes</text><text fill="#34495E" font-family="Arial" font-size="24" font-weight="bold" lengthAdjust="spacing" textLength="33.5742" x="777.407" y="679.0625">no</text><polygon fill="#D5F5E3" points="304.7842,745.8555,426.7949,745.8555,438.7949,778.9883,426.7949,812.1211,304.7842,812.1211,292.7842,778.9883,304.7842,745.8555" style="stroke:#27AE60;stroke-width:3;"/><text fill="#000000" font-family="Arial" font-size="26" font-weight="bold" lengthAdjust="spacing" textLength="86.0107" x="322.7842" y="787.9893">Type?</text><text fill="#34495E" font-family="Arial" font-size="24" lengthAdjust="spacing" textLength="68.625" x="206.1592" y="755.3281">Static</text><text fill="#34495E" font-family="Arial" font-size="24" lengthAdjust="spacing" textLength="105.8438" x="456.7949" y="755.3281">Dynamic</text><rect fill="#FADBD8" height="88.5938" rx="12.5" ry="12.5" style="stroke:#2E86C1;stroke-width:3;" width="293.3848" x="52.5645" y="822.1211"/><text fill="#000000" font-family="Arial" font-size="28" font-weight="bold" lengthAdjust="spacing" textLength="237.3848" x="80.5645" y="876.1113">Timed Delivery</text><rect fill="#FADBD8" height="88.5938" rx="12.5" ry="12.5" style="stroke:#2E86C1;stroke-width:3;" width="332.7461" x="365.9492" y="822.1211"/><text fill="#000000" font-family="Arial" font-size="28" font-weight="bold" lengthAdjust="spacing" textLength="276.7461" x="393.9492" y="876.1113">Reactive Delivery</text><polygon fill="#D5F5E3" points="365.7896,920.7148,377.7896,932.7148,365.7896,944.7148,353.7896,932.7148,365.7896,920.7148" style="stroke:#27AE60;stroke-width:3;"/><rect fill="#E8DAEF" height="88.5938" rx="12.5" ry="12.5" style="stroke:#2E86C1;stroke-width:3;" width="173.168" x="279.2056" y="965.3984"/><text fill="#000000" font-family="Arial" font-size="28" font-weight="bold" lengthAdjust="spacing" textLength="117.168" x="307.2056" y="1019.3887">Undock</text><polygon fill="#D5F5E3" points="278.9556,1080.957,452.6235,1080.957,464.6235,1114.0898,452.6235,1147.2227,278.9556,1147.2227,266.9556,1114.0898,278.9556,1080.957" style="stroke:#27AE60;stroke-width:3;"/><text fill="#000000" font-family="Arial" font-size="26" font-weight="bold" lengthAdjust="spacing" textLength="137.668" x="296.9556" y="1123.0908">All Done?</text><text fill="#27AE60" font-family="Arial" font-size="24" font-weight="bold" lengthAdjust="spacing" textLength="46.207" x="202.7485" y="1090.4297">yes</text><text fill="#34495E" font-family="Arial" font-size="24" font-weight="bold" lengthAdjust="spacing" textLength="33.5742" x="482.6235" y="1090.4297">no</text><rect fill="#F4D03F" height="124.5938" rx="12.5" ry="12.5" style="stroke:#2E86C1;stroke-width:3;" width="405.9473" x="6" y="1157.2227"/><line style="stroke:#2E86C1;stroke-width:1;" x1="6" x2="34" y1="1219.5195" y2="1219.5195"/><line style="stroke:#2E86C1;stroke-width:1;" x1="6" x2="34" y1="1221.5195" y2="1221.5195"/><text fill="#000000" font-family="Arial" font-size="28" font-weight="bold" lengthAdjust="spacing" textLength="313.9473" x="52" y="1228.7129">MISSION COMPLETE</text><line style="stroke:#2E86C1;stroke-width:1;" x1="383.9473" x2="411.9473" y1="1219.5195" y2="1219.5195"/><line style="stroke:#2E86C1;stroke-width:1;" x1="383.9473" x2="411.9473" y1="1221.5195" y2="1221.5195"/><ellipse cx="208.9736" cy="1312.8164" fill="none" rx="11" ry="11" style="stroke:#000000;stroke-width:1;"/><ellipse cx="208.9736" cy="1312.8164" fill="#FFFFFF" rx="6" ry="6" style="stroke:#000000;stroke-width:1;"/><rect fill="#AED6F1" height="88.5938" rx="12.5" ry="12.5" style="stroke:#2E86C1;stroke-width:3;" width="181.3164" x="431.9473" y="1157.2227"/><text fill="#000000" font-family="Arial" font-size="28" font-weight="bold" lengthAdjust="spacing" textLength="125.3164" x="459.9473" y="1211.2129">Resume</text><rect fill="#F5B7B1" height="88.5938" rx="12.5" ry="12.5" style="stroke:#2E86C1;stroke-width:3;" width="359.5293" x="728.6953" y="745.8555"/><text fill="#000000" font-family="Arial" font-size="28" font-weight="bold" lengthAdjust="spacing" textLength="303.5293" x="756.6953" y="799.8457">Blacklist &amp; Resume</text><polygon fill="#D5F5E3" points="637.1248,1333.8164,649.1248,1345.8164,637.1248,1357.8164,625.1248,1345.8164,637.1248,1333.8164" style="stroke:#27AE60;stroke-width:3;"/><polygon fill="#D5F5E3" points="487.1697,437.668,787.0798,437.668,799.0798,470.8008,787.0798,503.9336,487.1697,503.9336,475.1697,470.8008,487.1697,437.668" style="stroke:#27AE60;stroke-width:3;"/><text fill="#34495E" font-family="Arial" font-size="24" font-weight="bold" lengthAdjust="spacing" textLength="46.207" x="659.1248" y="540.3711">yes</text><text fill="#000000" font-family="Arial" font-size="26" font-weight="bold" lengthAdjust="spacing" textLength="263.9102" x="505.1697" y="479.8018">Station Detected?</text><text fill="#34495E" font-family="Arial" font-size="24" font-weight="bold" lengthAdjust="spacing" textLength="33.5742" x="817.0798" y="447.1406">no</text><polygon fill="#D5F5E3" points="637.1248,1377.8164,649.1248,1389.8164,637.1248,1401.8164,625.1248,1389.8164,637.1248,1377.8164" style="stroke:#27AE60;stroke-width:3;"/><polygon fill="#D5F5E3" points="637.1248,386.7031,649.1248,398.7031,637.1248,410.7031,625.1248,398.7031,637.1248,386.7031" style="stroke:#27AE60;stroke-width:3;"/><polygon fill="#D5F5E3" points="510.9734,1428.7813,763.2761,1428.7813,775.2761,1461.9141,763.2761,1495.0469,510.9734,1495.0469,498.9734,1461.9141,510.9734,1428.7813" style="stroke:#27AE60;stroke-width:3;"/><text fill="#34495E" font-family="Arial" font-size="24" font-weight="bold" lengthAdjust="spacing" textLength="33.5742" x="659.1248" y="1531.4844">no</text><text fill="#000000" font-family="Arial" font-size="26" font-weight="bold" lengthAdjust="spacing" textLength="216.3027" x="528.9734" y="1470.915">Frontiers Left?</text><text fill="#34495E" font-family="Arial" font-size="24" font-weight="bold" lengthAdjust="spacing" textLength="46.207" x="793.2761" y="1438.2539">yes</text><path d="M902.3708,1535.8633 L902.3708,1566.5039 L882.3708,1570.5039 L902.3708,1574.5039 L902.3708,1605.1445 A0,0 0 0 0 902.3708,1605.1445 L1178.7654,1605.1445 A0,0 0 0 0 1178.7654,1605.1445 L1178.7654,1545.8633 L1168.7654,1535.8633 L902.3708,1535.8633 A0,0 0 0 0 902.3708,1535.8633" fill="#FDEBD0" style="stroke:#D68910;stroke-width:1;"/><path d="M1168.7654,1535.8633 L1168.7654,1545.8633 L1178.7654,1545.8633 L1168.7654,1535.8633" fill="#FDEBD0" style="stroke:#D68910;stroke-width:1;"/><text fill="#000000" font-family="Arial" font-size="20" lengthAdjust="spacing" textLength="219.3945" x="926.3708" y="1577.4277">Zone nav + 360&#176; spin</text><rect fill="#FDEBD0" height="88.5938" rx="12.5" ry="12.5" style="stroke:#2E86C1;stroke-width:3;" width="490.4922" x="391.8787" y="1526.207"/><text fill="#000000" font-family="Arial" font-size="28" font-weight="bold" lengthAdjust="spacing" textLength="434.4922" x="419.8787" y="1580.1973">Search for Missing Stations</text><rect fill="#E8DAEF" height="88.5938" rx="12.5" ry="12.5" style="stroke:#2E86C1;stroke-width:3;" width="449.2578" x="412.4958" y="1747.1953"/><text fill="#000000" font-family="Arial" font-size="28" font-weight="bold" lengthAdjust="spacing" textLength="393.2578" x="440.4958" y="1801.1855">Dock &#8594; Deliver &#8594; Undock</text><polygon fill="#D5F5E3" points="565.9568,1634.8008,708.2927,1634.8008,720.2927,1667.9336,708.2927,1701.0664,565.9568,1701.0664,553.9568,1667.9336,565.9568,1634.8008" style="stroke:#27AE60;stroke-width:3;"/><text fill="#34495E" font-family="Arial" font-size="24" font-weight="bold" lengthAdjust="spacing" textLength="46.207" x="659.1248" y="1737.5039">yes</text><text fill="#000000" font-family="Arial" font-size="26" font-weight="bold" lengthAdjust="spacing" textLength="106.3359" x="583.9568" y="1676.9346">Found?</text><polygon fill="#D5F5E3" points="637.1248,1855.7891,649.1248,1867.7891,637.1248,1879.7891,625.1248,1867.7891,637.1248,1855.7891" style="stroke:#27AE60;stroke-width:3;"/><rect fill="#F4D03F" height="124.5938" rx="12.5" ry="12.5" style="stroke:#2E86C1;stroke-width:3;" width="405.9473" x="434.1511" y="1899.7891"/><line style="stroke:#2E86C1;stroke-width:1;" x1="434.1511" x2="462.1511" y1="1962.0859" y2="1962.0859"/><line style="stroke:#2E86C1;stroke-width:1;" x1="434.1511" x2="462.1511" y1="1964.0859" y2="1964.0859"/><text fill="#000000" font-family="Arial" font-size="28" font-weight="bold" lengthAdjust="spacing" textLength="313.9473" x="480.1511" y="1971.2793">MISSION COMPLETE</text><line style="stroke:#2E86C1;stroke-width:1;" x1="812.0984" x2="840.0984" y1="1962.0859" y2="1962.0859"/><line style="stroke:#2E86C1;stroke-width:1;" x1="812.0984" x2="840.0984" y1="1964.0859" y2="1964.0859"/><ellipse cx="637.1248" cy="2055.3828" fill="none" rx="11" ry="11" style="stroke:#000000;stroke-width:1;"/><ellipse cx="637.1248" cy="2055.3828" fill="#FFFFFF" rx="6" ry="6" style="stroke:#000000;stroke-width:1;"/><line style="stroke:#2C3E50;stroke-width:3;" x1="637.1248" x2="637.1248" y1="149.5156" y2="169.5156"/><polygon fill="#2C3E50" points="633.1248,159.5156,637.1248,169.5156,641.1248,159.5156,637.1248,163.5156" style="stroke:#2C3E50;stroke-width:1;"/><line style="stroke:#2C3E50;stroke-width:3;" x1="637.1248" x2="637.1248" y1="258.1094" y2="278.1094"/><polygon fill="#2C3E50" points="633.1248,268.1094,637.1248,278.1094,641.1248,268.1094,637.1248,272.1094" style="stroke:#2C3E50;stroke-width:1;"/><line style="stroke:#2C3E50;stroke-width:3;" x1="292.7842" x2="199.2568" y1="778.9883" y2="778.9883"/><line style="stroke:#2C3E50;stroke-width:3;" x1="199.2568" x2="199.2568" y1="778.9883" y2="822.1211"/><polygon fill="#2C3E50" points="195.2568,812.1211,199.2568,822.1211,203.2568,812.1211,199.2568,816.1211" style="stroke:#2C3E50;stroke-width:1;"/><line style="stroke:#2C3E50;stroke-width:3;" x1="438.7949" x2="532.3223" y1="778.9883" y2="778.9883"/><line style="stroke:#2C3E50;stroke-width:3;" x1="532.3223" x2="532.3223" y1="778.9883" y2="822.1211"/><polygon fill="#2C3E50" points="528.3223,812.1211,532.3223,822.1211,536.3223,812.1211,532.3223,816.1211" style="stroke:#2C3E50;stroke-width:1;"/><line style="stroke:#2C3E50;stroke-width:3;" x1="199.2568" x2="199.2568" y1="910.7148" y2="932.7148"/><line style="stroke:#2C3E50;stroke-width:3;" x1="199.2568" x2="353.7896" y1="932.7148" y2="932.7148"/><polygon fill="#2C3E50" points="343.7896,928.7148,353.7896,932.7148,343.7896,936.7148,347.7896,932.7148" style="stroke:#2C3E50;stroke-width:1;"/><line style="stroke:#2C3E50;stroke-width:3;" x1="532.3223" x2="532.3223" y1="910.7148" y2="932.7148"/><line style="stroke:#2C3E50;stroke-width:3;" x1="532.3223" x2="377.7896" y1="932.7148" y2="932.7148"/><polygon fill="#2C3E50" points="387.7896,928.7148,377.7896,932.7148,387.7896,936.7148,383.7896,932.7148" style="stroke:#2C3E50;stroke-width:1;"/><line style="stroke:#2C3E50;stroke-width:3;" x1="365.7896" x2="365.7896" y1="944.7148" y2="965.3984"/><polygon fill="#2C3E50" points="361.7896,955.3984,365.7896,965.3984,369.7896,955.3984,365.7896,959.3984" style="stroke:#2C3E50;stroke-width:1;"/><line style="stroke:#2C3E50;stroke-width:3;" x1="208.9736" x2="208.9736" y1="1281.8164" y2="1301.8164"/><polygon fill="#2C3E50" points="204.9736,1291.8164,208.9736,1301.8164,212.9736,1291.8164,208.9736,1295.8164" style="stroke:#2C3E50;stroke-width:1;"/><line style="stroke:#2C3E50;stroke-width:3;" x1="266.9556" x2="208.9736" y1="1114.0898" y2="1114.0898"/><line style="stroke:#2C3E50;stroke-width:3;" x1="208.9736" x2="208.9736" y1="1114.0898" y2="1157.2227"/><polygon fill="#2C3E50" points="204.9736,1147.2227,208.9736,1157.2227,212.9736,1147.2227,208.9736,1151.2227" style="stroke:#2C3E50;stroke-width:1;"/><line style="stroke:#2C3E50;stroke-width:3;" x1="464.6235" x2="522.6055" y1="1114.0898" y2="1114.0898"/><line style="stroke:#2C3E50;stroke-width:3;" x1="522.6055" x2="522.6055" y1="1114.0898" y2="1157.2227"/><polygon fill="#2C3E50" points="518.6055,1147.2227,522.6055,1157.2227,526.6055,1147.2227,522.6055,1151.2227" style="stroke:#2C3E50;stroke-width:1;"/><line style="stroke:#2C3E50;stroke-width:3;" x1="522.6055" x2="522.6055" y1="1245.8164" y2="1345.8164"/><line style="stroke:#2C3E50;stroke-width:3;" x1="522.6055" x2="625.1248" y1="1345.8164" y2="1345.8164"/><polygon fill="#2C3E50" points="615.1248,1341.8164,625.1248,1345.8164,615.1248,1349.8164,619.1248,1345.8164" style="stroke:#2C3E50;stroke-width:1;"/><line style="stroke:#2C3E50;stroke-width:3;" x1="365.7896" x2="365.7896" y1="1053.9922" y2="1080.957"/><polygon fill="#2C3E50" points="361.7896,1070.957,365.7896,1080.957,369.7896,1070.957,365.7896,1074.957" style="stroke:#2C3E50;stroke-width:1;"/><line style="stroke:#2C3E50;stroke-width:3;" x1="514.8425" x2="365.7896" y1="702.7227" y2="702.7227"/><line style="stroke:#2C3E50;stroke-width:3;" x1="365.7896" x2="365.7896" y1="702.7227" y2="745.8555"/><polygon fill="#2C3E50" points="361.7896,735.8555,365.7896,745.8555,369.7896,735.8555,365.7896,739.8555" style="stroke:#2C3E50;stroke-width:1;"/><line style="stroke:#2C3E50;stroke-width:3;" x1="759.407" x2="908.46" y1="702.7227" y2="702.7227"/><line style="stroke:#2C3E50;stroke-width:3;" x1="908.46" x2="908.46" y1="702.7227" y2="745.8555"/><polygon fill="#2C3E50" points="904.46,735.8555,908.46,745.8555,912.46,735.8555,908.46,739.8555" style="stroke:#2C3E50;stroke-width:1;"/><line style="stroke:#2C3E50;stroke-width:3;" x1="908.46" x2="908.46" y1="834.4492" y2="1345.8164"/><line style="stroke:#2C3E50;stroke-width:3;" x1="908.46" x2="649.1248" y1="1345.8164" y2="1345.8164"/><polygon fill="#2C3E50" points="659.1248,1341.8164,649.1248,1345.8164,659.1248,1349.8164,655.1248,1345.8164" style="stroke:#2C3E50;stroke-width:1;"/><line style="stroke:#2C3E50;stroke-width:3;" x1="637.1248" x2="637.1248" y1="640.6406" y2="669.5898"/><polygon fill="#2C3E50" points="633.1248,659.5898,637.1248,669.5898,641.1248,659.5898,637.1248,663.5898" style="stroke:#2C3E50;stroke-width:1;"/><line style="stroke:#2C3E50;stroke-width:3;" x1="637.1248" x2="637.1248" y1="503.9336" y2="552.0469"/><polygon fill="#2C3E50" points="633.1248,542.0469,637.1248,552.0469,641.1248,542.0469,637.1248,546.0469" style="stroke:#2C3E50;stroke-width:1;"/><line style="stroke:#2C3E50;stroke-width:3;" x1="799.0798" x2="1132.2556" y1="470.8008" y2="470.8008"/><polygon fill="#2C3E50" points="1128.2556,954.7148,1132.2556,964.7148,1136.2556,954.7148,1132.2556,958.7148" style="stroke:#2C3E50;stroke-width:3;"/><line style="stroke:#2C3E50;stroke-width:3;" x1="1132.2556" x2="1132.2556" y1="470.8008" y2="1389.8164"/><line style="stroke:#2C3E50;stroke-width:3;" x1="1132.2556" x2="649.1248" y1="1389.8164" y2="1389.8164"/><polygon fill="#2C3E50" points="659.1248,1385.8164,649.1248,1389.8164,659.1248,1393.8164,655.1248,1389.8164" style="stroke:#2C3E50;stroke-width:1;"/><line style="stroke:#2C3E50;stroke-width:3;" x1="637.1248" x2="637.1248" y1="1357.8164" y2="1377.8164"/><polygon fill="#2C3E50" points="633.1248,1367.8164,637.1248,1377.8164,641.1248,1367.8164,637.1248,1371.8164" style="stroke:#2C3E50;stroke-width:1;"/><line style="stroke:#2C3E50;stroke-width:3;" x1="637.1248" x2="637.1248" y1="410.7031" y2="437.668"/><polygon fill="#2C3E50" points="633.1248,427.668,637.1248,437.668,641.1248,427.668,637.1248,431.668" style="stroke:#2C3E50;stroke-width:1;"/><line style="stroke:#2C3E50;stroke-width:3;" x1="775.2761" x2="1156.2556" y1="1461.9141" y2="1461.9141"/><polygon fill="#2C3E50" points="1152.2556,974.7148,1156.2556,964.7148,1160.2556,974.7148,1156.2556,970.7148" style="stroke:#2C3E50;stroke-width:3;"/><line style="stroke:#2C3E50;stroke-width:3;" x1="1156.2556" x2="1156.2556" y1="398.7031" y2="1461.9141"/><line style="stroke:#2C3E50;stroke-width:3;" x1="1156.2556" x2="649.1248" y1="398.7031" y2="398.7031"/><polygon fill="#2C3E50" points="659.1248,394.7031,649.1248,398.7031,659.1248,402.7031,655.1248,398.7031" style="stroke:#2C3E50;stroke-width:1;"/><line style="stroke:#2C3E50;stroke-width:3;" x1="637.1248" x2="637.1248" y1="1401.8164" y2="1428.7813"/><polygon fill="#2C3E50" points="633.1248,1418.7813,637.1248,1428.7813,641.1248,1418.7813,637.1248,1422.7813" style="stroke:#2C3E50;stroke-width:1;"/><line style="stroke:#2C3E50;stroke-width:3;" x1="637.1248" x2="637.1248" y1="366.7031" y2="386.7031"/><polygon fill="#2C3E50" points="633.1248,376.7031,637.1248,386.7031,641.1248,376.7031,637.1248,380.7031" style="stroke:#2C3E50;stroke-width:1;"/><line style="stroke:#2C3E50;stroke-width:3;" x1="637.1248" x2="637.1248" y1="1495.0469" y2="1526.207"/><polygon fill="#2C3E50" points="633.1248,1516.207,637.1248,1526.207,641.1248,1516.207,637.1248,1520.207" style="stroke:#2C3E50;stroke-width:1;"/><line style="stroke:#2C3E50;stroke-width:3;" x1="637.1248" x2="637.1248" y1="1701.0664" y2="1747.1953"/><polygon fill="#2C3E50" points="633.1248,1737.1953,637.1248,1747.1953,641.1248,1737.1953,637.1248,1741.1953" style="stroke:#2C3E50;stroke-width:1;"/><line style="stroke:#2C3E50;stroke-width:3;" x1="720.2927" x2="871.7537" y1="1667.9336" y2="1667.9336"/><polygon fill="#2C3E50" points="867.7537,1788.9258,871.7537,1798.9258,875.7537,1788.9258,871.7537,1792.9258" style="stroke:#2C3E50;stroke-width:3;"/><line style="stroke:#2C3E50;stroke-width:3;" x1="871.7537" x2="871.7537" y1="1667.9336" y2="1867.7891"/><line style="stroke:#2C3E50;stroke-width:3;" x1="871.7537" x2="649.1248" y1="1867.7891" y2="1867.7891"/><polygon fill="#2C3E50" points="659.1248,1863.7891,649.1248,1867.7891,659.1248,1871.7891,655.1248,1867.7891" style="stroke:#2C3E50;stroke-width:1;"/><line style="stroke:#2C3E50;stroke-width:3;" x1="637.1248" x2="637.1248" y1="1835.7891" y2="1855.7891"/><polygon fill="#2C3E50" points="633.1248,1845.7891,637.1248,1855.7891,641.1248,1845.7891,637.1248,1849.7891" style="stroke:#2C3E50;stroke-width:1;"/><line style="stroke:#2C3E50;stroke-width:3;" x1="637.1248" x2="637.1248" y1="1614.8008" y2="1634.8008"/><polygon fill="#2C3E50" points="633.1248,1624.8008,637.1248,1634.8008,641.1248,1624.8008,637.1248,1628.8008" style="stroke:#2C3E50;stroke-width:1;"/><line style="stroke:#2C3E50;stroke-width:3;" x1="637.1248" x2="637.1248" y1="1879.7891" y2="1899.7891"/><polygon fill="#2C3E50" points="633.1248,1889.7891,637.1248,1899.7891,641.1248,1889.7891,637.1248,1893.7891" style="stroke:#2C3E50;stroke-width:1;"/><line style="stroke:#2C3E50;stroke-width:3;" x1="637.1248" x2="637.1248" y1="2024.3828" y2="2044.3828"/><polygon fill="#2C3E50" points="633.1248,2034.3828,637.1248,2044.3828,641.1248,2034.3828,637.1248,2038.3828" style="stroke:#2C3E50;stroke-width:1;"/><?plantuml-src VLNRRjf047ttLqmLgKhKH4cuXHX2PR1THOKamlIboijY3tWLisljBb3orAT-GDKFwJVqK_8b7OC99a3UBCwPyPapPym74-C48KqO5vP-uY9bYarWoCAdiP9J4NLa8XNCOswmW3kXuJDk5kqtl2F7Ssl-vJwcL16gd5NowhNEOTOWvk6JGAsXl8VZIs42_enGgXz2pI916CeasaDmEPj84UqeTwj-rIk_Kx0rm9NZrIuEapSQQtjTU-tJANlLhJvAoVcxu05pCcZprie-A6zRhbIkgrw1S2SDxjZXkrxRlNZBAdhWrkhNbsyP6mb5nCKHcoOc0-yOnSrHd2K5F8XP9ETSZ6744hqlQFsLD2LGRRT-O56K5LxMBSjmGtjl3bjDJHBiSgtrXKPAuGgSNXzUVlw1G8xCd2c4TYB39w1jZQb9yppZjvhdmzQZMDMMIgqUrvfB0NuYvt0_GpNZEC-fbgKDKyQoRmKtD0lN2C526vmqB44sWEBZsDZGLgHjcfv2q7Lwft37PgLJw905YbdvhTZUZvJyHEYnPyoh4nnHSPUxJXz6YbpZgCw6J6C4k6GpGyeiIs6Ap5W0V0J7WLd-IcOR30r6dq-0Zbl0CHcoG9rDTq9KW2ElxZgURxkP1NDkOiXB6qkugDz95Ky6R0mphgSi0KqkI1hfKHnNpjAO505BKoLP6AzwPqAoljbAxhyUbB0Y3XOflbAM6i8rJ2fznssxTNl09pIsYmcd5ImQEOuK4thJGh39lg8-iYmuk5id8ZxAdzS-V1CHAMuKX3b90guK6t7DCCkydTzzQpDEyto9j8eIAkv5sRTlRdgtGN1xVmUT-zv3rnjuDpUDLvOsCjqQXLeAMJG8WARGqmdkIZzGSUHNsrVjIxkTq35J90ryX6ABTOCzvIje5QViOqzdTEpdmTFGfJYI5LnlBJ8BobORA_zes04o5SOmeg_4yeWe2td2zFPvV2UFGR0PV89oxUBVNz0f_Grb6_2pUpyGdwtyllpwlLxoydczpDL4xozZkOJ_?></g></svg>